<?xml version="1.0" encoding="utf-8"?>
<svg viewBox="-376.123 151.784 375.404 171.927" xmlns="http://www.w3.org/2000/svg">
  <path fill-rule="evenodd" fill="#060607" d="M -29.328 164.799 L -29.328 178.082 L -363.036 177.312 L -363.033 164.577 L -340.568 164.797 L -339.678 167.609 L -341.164 172.297 L -338.195 172.297 L -339.678 167.609 L -338.786 164.797 L -333.36 164.797 L -332.094 160.78 L -329.598 152.89 L -327.934 158.149 L -319.503 158.032 L -318.151 158.032 L -314.735 168.829 L -305.659 168.829 L -303.706 162.655 L -293.077 162.688 L -291.52 167.606 L -289.186 160.226 L -288.406 162.688 L -271.028 162.655 L -267.585 151.784 L -261.095 172.297 L -261.093 172.288 L -261.09 172.297 L -258.647 164.576 L -257.61 164.576 L -257.043 166.367 L -257.944 169.202 L -256.147 169.202 L -257.043 166.367 L -256.487 164.612 L -240.678 164.581 L -240.678 164.576 L -232.281 164.576 L -230.216 158.032 L -226.729 158.032 L -222.421 172.297 L -222.414 172.278 L -222.409 172.297 L -219.935 164.797 L -187.847 164.797 L -186.957 167.609 L -188.443 172.297 L -185.474 172.297 L -186.957 167.609 L -186.065 164.797 L -171.171 164.797 L -169.904 160.78 L -167.409 152.89 L -165.745 158.149 L -157.313 158.032 L -155.961 158.032 L -152.546 168.829 L -143.47 168.829 L -141.517 162.655 L -127.796 162.688 L -126.239 167.606 L -123.905 160.226 L -123.125 162.688 L -96.72 162.655 L -93.276 151.784 L -86.786 172.297 L -86.784 172.288 L -86.781 172.297 L -84.338 164.576 L -83.302 164.576 L -82.735 166.367 L -83.635 169.202 L -81.839 169.202 L -82.735 166.367 L -82.179 164.612 L -69.702 164.576 L -67.637 158.032 L -64.151 158.032 L -59.842 172.297 L -59.836 172.278 L -59.831 172.297 L -57.356 164.797 L -29.328 164.799 Z M -358.408 167.866 L -358.877 167.866 L -358.877 172.297 L -358.408 172.297 L -358.408 167.866 Z M -357.7 167.866 L -358.167 167.866 L -358.167 172.297 L -357.7 172.297 L -357.7 167.866 Z M -354.429 167.866 L -354.896 167.866 L -354.896 172.297 L -354.429 172.297 L -354.429 167.866 Z M -348.817 167.866 L -350.219 167.866 L -350.219 172.297 L -348.817 172.297 L -348.817 167.866 Z M -324.423 162.295 L -324.891 162.295 L -324.891 163.772 L -324.423 163.772 L -324.423 162.295 Z M -322.631 162.295 L -323.099 162.295 L -323.099 166.727 L -322.631 166.727 L -322.631 162.295 Z M -319.006 162.295 L -319.474 162.295 L -319.474 163.772 L -319.006 163.772 L -319.006 162.295 Z M -319.006 165.251 L -319.474 165.251 L -319.474 166.727 L -319.006 166.727 L -319.006 165.251 Z M -213.462 167.866 L -213.93 167.866 L -213.93 172.297 L -213.462 172.297 L -213.462 167.866 Z M -212.754 167.866 L -213.221 167.866 L -213.221 172.297 L -212.754 172.297 L -212.754 167.866 Z M -209.483 167.866 L -209.95 167.866 L -209.95 172.297 L -209.483 172.297 L -209.483 167.866 Z M -203.871 167.866 L -205.272 167.866 L -205.272 172.297 L -203.871 172.297 L -203.871 167.866 Z M -162.234 162.295 L -162.702 162.295 L -162.702 163.772 L -162.234 163.772 L -162.234 162.295 Z M -160.442 162.295 L -160.91 162.295 L -160.91 166.727 L -160.442 166.727 L -160.442 162.295 Z M -156.816 162.295 L -157.284 162.295 L -157.284 163.772 L -156.816 163.772 L -156.816 162.295 Z M -156.816 165.251 L -157.284 165.251 L -157.284 166.727 L -156.816 166.727 L -156.816 165.251 Z M -50.883 167.866 L -51.351 167.866 L -51.351 172.297 L -50.883 172.297 L -50.883 167.866 Z M -50.175 167.866 L -50.642 167.866 L -50.642 172.297 L -50.175 172.297 L -50.175 167.866 Z M -46.904 167.866 L -47.371 167.866 L -47.371 172.297 L -46.904 172.297 L -46.904 167.866 Z M -41.292 167.866 L -42.694 167.866 L -42.694 172.297 L -41.292 172.297 L -41.292 167.866 Z M -340.575 164.774 L -338.779 164.774 L -338.786 164.797 L -340.568 164.797 L -340.575 164.774 Z M -288.081 156.735 L -289.186 160.226 L -290.293 156.735 L -288.081 156.735 Z" data-darkreader-inline-fill="" style="--darkreader-inline-fill:#050506;"/>
  <path fill-rule="evenodd" fill="#060607" d="M -29.047 299.718 L -29.047 323.711 L -357.746 318.241 L -357.591 299.745 L -336.342 299.716 L -335.463 302.528 L -336.93 307.216 L -333.999 307.216 L -335.463 302.528 L -334.582 299.716 L -329.226 299.716 L -327.975 295.699 L -325.511 287.809 L -323.868 293.068 L -315.543 292.951 L -314.209 292.951 L -310.836 303.748 L -301.876 303.748 L -299.948 297.574 L -289.453 297.607 L -287.915 302.525 L -285.611 295.145 L -284.841 297.607 L -267.683 297.574 L -264.284 286.703 L -257.876 307.216 L -257.874 307.207 L -257.871 307.216 L -255.459 299.495 L -254.436 299.495 L -253.876 301.286 L -254.765 304.121 L -252.991 304.121 L -253.876 301.286 L -253.327 299.531 L -237.718 299.5 L -237.718 299.495 L -229.428 299.495 L -227.389 292.951 L -223.947 292.951 L -219.692 307.216 L -219.686 307.197 L -219.68 307.216 L -217.237 299.716 L -185.557 299.716 L -184.678 302.528 L -186.145 307.216 L -183.214 307.216 L -184.678 302.528 L -183.797 299.716 L -169.092 299.716 L -167.842 295.699 L -165.377 287.809 L -163.734 293.068 L -155.409 292.951 L -154.075 292.951 L -150.702 303.748 L -141.742 303.748 L -139.814 297.574 L -126.267 297.607 L -124.73 302.525 L -122.426 295.145 L -121.656 297.607 L -95.585 297.574 L -92.185 286.703 L -85.777 307.216 L -85.775 307.207 L -85.772 307.216 L -83.36 299.495 L -82.336 299.495 L -81.777 301.286 L -82.666 304.121 L -80.893 304.121 L -81.777 301.286 L -81.227 299.531 L -68.91 299.495 L -66.871 292.951 L -63.429 292.951 L -59.175 307.216 L -59.167 307.197 L -59.163 307.216 L -56.719 299.716 L -29.047 299.718 Z M -353.956 302.785 L -354.419 302.785 L -354.419 307.216 L -353.956 307.216 L -353.956 302.785 Z M -353.257 302.785 L -353.718 302.785 L -353.718 307.216 L -353.257 307.216 L -353.257 302.785 Z M -350.027 302.785 L -350.488 302.785 L -350.488 307.216 L -350.027 307.216 L -350.027 302.785 Z M -344.486 302.785 L -345.87 302.785 L -345.87 307.216 L -344.486 307.216 L -344.486 302.785 Z M -320.401 297.214 L -320.863 297.214 L -320.863 298.691 L -320.401 298.691 L -320.401 297.214 Z M -318.633 297.214 L -319.094 297.214 L -319.094 301.646 L -318.633 301.646 L -318.633 297.214 Z M -315.053 297.214 L -315.515 297.214 L -315.515 298.691 L -315.053 298.691 L -315.053 297.214 Z M -315.053 300.17 L -315.515 300.17 L -315.515 301.646 L -315.053 301.646 L -315.053 300.17 Z M -210.847 302.785 L -211.309 302.785 L -211.309 307.216 L -210.847 307.216 L -210.847 302.785 Z M -210.148 302.785 L -210.609 302.785 L -210.609 307.216 L -210.148 307.216 L -210.148 302.785 Z M -206.919 302.785 L -207.379 302.785 L -207.379 307.216 L -206.919 307.216 L -206.919 302.785 Z M -201.377 302.785 L -202.762 302.785 L -202.762 307.216 L -201.377 307.216 L -201.377 302.785 Z M -160.267 297.214 L -160.73 297.214 L -160.73 298.691 L -160.267 298.691 L -160.267 297.214 Z M -158.499 297.214 L -158.96 297.214 L -158.96 301.646 L -158.499 301.646 L -158.499 297.214 Z M -154.919 297.214 L -155.381 297.214 L -155.381 298.691 L -154.919 298.691 L -154.919 297.214 Z M -154.919 300.17 L -155.381 300.17 L -155.381 301.646 L -154.919 301.646 L -154.919 300.17 Z M -50.329 302.785 L -50.791 302.785 L -50.791 307.216 L -50.329 307.216 L -50.329 302.785 Z M -49.63 302.785 L -50.091 302.785 L -50.091 307.216 L -49.63 307.216 L -49.63 302.785 Z M -46.4 302.785 L -46.862 302.785 L -46.862 307.216 L -46.4 307.216 L -46.4 302.785 Z M -40.86 302.785 L -42.244 302.785 L -42.244 307.216 L -40.86 307.216 L -40.86 302.785 Z M -336.349 299.693 L -334.575 299.693 L -334.582 299.716 L -336.342 299.716 L -336.349 299.693 Z M -284.52 291.654 L -285.611 295.145 L -286.704 291.654 L -284.52 291.654 Z" data-darkreader-inline-fill="" style="--darkreader-inline-fill:#050506;" transform="matrix(-1, 0, 0, -1, -386.792999, 610.414001)"/>
  <rect x="29.608" y="-300.031" width="320.623" height="124.615" style="stroke: rgb(6, 6, 7); paint-order: fill; fill: rgb(6, 6, 7); --darkreader-inline-stroke:#e4e2de; --darkreader-inline-fill:#e4e2de;" transform="matrix(-1, 0, 0, -1, 0, 0)" data-darkreader-inline-stroke="" data-darkreader-inline-fill=""/>
  <path fill-rule="evenodd" fill="#060607" d="M -294.504 242.123 L -294.504 256.31 L -430.385 254.636 C -430.594 254.636 -430.591 241.901 -430.382 241.901 L -424.43 242.121 L -423.139 238.104 L -420.597 230.214 L -418.902 235.473 L -410.311 235.356 L -408.934 235.356 L -405.455 246.153 L -396.208 246.153 L -394.218 239.979 L -380.239 240.012 L -378.653 244.93 L -376.275 237.55 L -375.48 240.012 L -348.579 239.979 L -345.07 229.108 L -338.458 249.621 L -338.456 249.612 L -338.453 249.621 L -335.964 241.9 L -334.908 241.9 L -334.33 243.691 L -335.247 246.526 L -333.418 246.526 L -334.33 243.691 L -333.764 241.936 L -321.052 241.9 L -318.948 235.356 L -315.397 235.356 L -311.007 249.621 L -311.001 249.602 L -310.996 249.621 L -308.474 242.121 L -294.504 242.123 Z M -415.325 239.619 L -415.802 239.619 L -415.802 241.096 L -415.325 241.096 L -415.325 239.619 Z M -413.499 239.619 L -413.976 239.619 L -413.976 244.051 L -413.499 244.051 L -413.499 239.619 Z M -409.805 239.619 L -410.282 239.619 L -410.282 241.096 L -409.805 241.096 L -409.805 239.619 Z M -409.805 242.575 L -410.282 242.575 L -410.282 244.051 L -409.805 244.051 L -409.805 242.575 Z" data-darkreader-inline-fill="" style="--darkreader-inline-fill:#050506;" transform="matrix(0, -1, 1, 0, -605.23114, -119.813126)"/>
  <path fill-rule="evenodd" fill="#060607" d="M 57.169 244.741 L 57.368 252.535 L -88.515 251.625 L -88.512 238.89 L -84.438 239.11 L -83.593 241.922 L -85.004 246.61 L -82.185 246.61 L -83.593 241.922 L -82.745 239.11 L -77.349 243.142 L -75.495 236.968 L -65.401 237.001 L -63.922 241.919 L -61.706 234.539 L -60.965 237.001 L -56.717 233.697 L -53.447 222.826 L -47.284 243.339 L -47.282 243.33 L -47.28 243.339 L -44.959 235.618 L -43.975 235.618 L -43.437 237.409 L -44.292 240.244 L -42.585 240.244 L -43.437 237.409 L -42.908 235.654 L -27.896 235.623 L -27.896 235.618 L -19.922 235.618 L -17.96 229.074 L -14.65 229.074 L -10.558 243.339 L -10.552 243.32 L -10.547 243.339 L -8.197 235.839 L 22.274 235.839 L 23.119 238.651 L 21.708 243.339 L 24.527 243.339 L 23.119 238.651 L 23.965 235.839 L 38.109 235.839 L 39.313 231.822 L 41.682 223.932 L 43.262 229.191 L 51.269 229.074 L 52.553 229.074 L 55.796 239.871 L 57.169 244.741 Z M -2.051 238.908 L -2.495 238.908 L -2.495 243.339 L -2.051 243.339 L -2.051 238.908 Z M -1.379 238.908 L -1.822 238.908 L -1.822 243.339 L -1.379 243.339 L -1.379 238.908 Z M 1.728 238.908 L 1.284 238.908 L 1.284 243.339 L 1.728 243.339 L 1.728 238.908 Z M 7.057 238.908 L 5.727 238.908 L 5.727 243.339 L 7.057 243.339 L 7.057 238.908 Z M 46.596 233.337 L 46.152 233.337 L 46.152 234.814 L 46.596 234.814 L 46.596 233.337 Z M 48.298 233.337 L 47.854 233.337 L 47.854 237.769 L 48.298 237.769 L 48.298 233.337 Z M 51.742 233.337 L 51.297 233.337 L 51.297 234.814 L 51.742 234.814 L 51.742 233.337 Z M 51.742 236.293 L 51.297 236.293 L 51.297 237.769 L 51.742 237.769 L 51.742 236.293 Z M -84.445 239.087 L -82.739 239.087 L -82.745 239.11 L -84.438 239.11 L -84.445 239.087 Z M -60.656 231.048 L -61.706 234.539 L -62.757 231.048 L -60.656 231.048 Z" data-darkreader-inline-fill="" style="--darkreader-inline-fill:#050506;" transform="matrix(0, 1, -1, 0, 222.106995, 253.253998)"/>
</svg>