<?xml version="1.0" encoding="utf-8"?>
<svg viewBox="-376.123 151.784 832.163 247.024" xmlns="http://www.w3.org/2000/svg">
  <path fill-rule="evenodd" fill="#060607" d="M 392.622 170.484 L 392.622 189.569 L -347.113 188.463 L -347.106 170.165 L -297.307 170.481 L -295.335 174.521 L -298.629 181.257 L -292.048 181.257 L -295.335 174.521 L -293.358 170.481 L -281.33 170.481 L -278.523 164.709 L -272.99 153.373 L -269.302 160.929 L -250.613 160.761 L -247.616 160.761 L -240.043 176.274 L -219.925 176.274 L -215.596 167.403 L -192.034 167.451 L -188.582 174.517 L -183.408 163.913 L -181.679 167.451 L -143.158 167.403 L -135.525 151.784 L -121.14 181.257 L -121.134 181.244 L -121.128 181.257 L -115.713 170.164 L -113.413 170.164 L -112.156 172.737 L -114.154 176.81 L -110.17 176.81 L -112.156 172.737 L -110.924 170.215 L -75.881 170.171 L -75.881 170.164 L -57.267 170.164 L -52.689 160.761 L -44.959 160.761 L -35.41 181.257 L -35.395 181.23 L -35.384 181.257 L -29.9 170.481 L 41.231 170.481 L 43.203 174.521 L 39.909 181.257 L 46.491 181.257 L 43.203 174.521 L 45.18 170.481 L 78.197 170.481 L 81.004 164.709 L 86.535 153.373 L 90.224 160.929 L 108.915 160.761 L 111.913 160.761 L 119.483 176.274 L 139.602 176.274 L 143.931 167.403 L 174.346 167.451 L 177.798 174.517 L 182.972 163.913 L 184.701 167.451 L 243.232 167.403 L 250.867 151.784 L 265.254 181.257 L 265.258 181.244 L 265.265 181.257 L 270.681 170.164 L 272.976 170.164 L 274.234 172.737 L 272.238 176.81 L 276.22 176.81 L 274.234 172.737 L 275.465 170.215 L 303.123 170.164 L 307.701 160.761 L 315.428 160.761 L 324.981 181.257 L 324.995 181.23 L 325.005 181.257 L 330.492 170.481 L 392.622 170.484 Z M -336.854 174.891 L -337.894 174.891 L -337.894 181.257 L -336.854 181.257 L -336.854 174.891 Z M -335.284 174.891 L -336.32 174.891 L -336.32 181.257 L -335.284 181.257 L -335.284 174.891 Z M -328.034 174.891 L -329.069 174.891 L -329.069 181.257 L -328.034 181.257 L -328.034 174.891 Z M -315.594 174.891 L -318.701 174.891 L -318.701 181.257 L -315.594 181.257 L -315.594 174.891 Z M -261.519 166.886 L -262.557 166.886 L -262.557 169.008 L -261.519 169.008 L -261.519 166.886 Z M -257.548 166.886 L -258.585 166.886 L -258.585 173.254 L -257.548 173.254 L -257.548 166.886 Z M -249.511 166.886 L -250.549 166.886 L -250.549 169.008 L -249.511 169.008 L -249.511 166.886 Z M -249.511 171.133 L -250.549 171.133 L -250.549 173.254 L -249.511 173.254 L -249.511 171.133 Z M -15.551 174.891 L -16.588 174.891 L -16.588 181.257 L -15.551 181.257 L -15.551 174.891 Z M -13.981 174.891 L -15.016 174.891 L -15.016 181.257 L -13.981 181.257 L -13.981 174.891 Z M -6.729 174.891 L -7.766 174.891 L -7.766 181.257 L -6.729 181.257 L -6.729 174.891 Z M 5.71 174.891 L 2.604 174.891 L 2.604 181.257 L 5.71 181.257 L 5.71 174.891 Z M 98.008 166.886 L 96.97 166.886 L 96.97 169.008 L 98.008 169.008 L 98.008 166.886 Z M 101.98 166.886 L 100.942 166.886 L 100.942 173.254 L 101.98 173.254 L 101.98 166.886 Z M 110.017 166.886 L 108.98 166.886 L 108.98 169.008 L 110.017 169.008 L 110.017 166.886 Z M 110.017 171.133 L 108.98 171.133 L 108.98 173.254 L 110.017 173.254 L 110.017 171.133 Z M 344.84 174.891 L 343.802 174.891 L 343.802 181.257 L 344.84 181.257 L 344.84 174.891 Z M 346.409 174.891 L 345.375 174.891 L 345.375 181.257 L 346.409 181.257 L 346.409 174.891 Z M 353.661 174.891 L 352.625 174.891 L 352.625 181.257 L 353.661 181.257 L 353.661 174.891 Z M 366.101 174.891 L 362.993 174.891 L 362.993 181.257 L 366.101 181.257 L 366.101 174.891 Z M -297.323 170.448 L -293.342 170.448 L -293.358 170.481 L -297.307 170.481 L -297.323 170.448 Z M -180.959 158.898 L -183.408 163.913 L -185.862 158.898 L -180.959 158.898 Z" data-darkreader-inline-fill="" style="--darkreader-inline-fill:#050506;"/>
  <path fill-rule="evenodd" fill="#060607" d="M 393.244 364.335 L 393.244 398.808 L -335.387 390.949 L -335.043 364.374 L -287.939 364.332 L -285.992 368.373 L -289.243 375.108 L -282.745 375.108 L -285.992 368.373 L -284.039 364.332 L -272.165 364.332 L -269.393 358.561 L -263.931 347.224 L -260.289 354.781 L -241.835 354.612 L -238.877 354.612 L -231.401 370.126 L -211.539 370.126 L -207.266 361.255 L -184 361.302 L -180.591 368.368 L -175.484 357.765 L -173.777 361.302 L -135.743 361.255 L -128.208 345.635 L -114.003 375.108 L -113.999 375.095 L -113.993 375.108 L -108.646 364.015 L -106.379 364.015 L -105.137 366.588 L -107.107 370.661 L -103.176 370.661 L -105.137 366.588 L -103.92 364.067 L -69.319 364.022 L -69.319 364.015 L -50.943 364.015 L -46.423 354.612 L -38.793 354.612 L -29.361 375.108 L -29.348 375.081 L -29.334 375.108 L -23.919 364.332 L 46.308 364.332 L 48.255 368.373 L 45.004 375.108 L 51.5 375.108 L 48.255 368.373 L 50.209 364.332 L 82.805 364.332 L 85.575 358.561 L 91.039 347.224 L 94.683 354.781 L 113.137 354.612 L 116.094 354.612 L 123.571 370.126 L 143.433 370.126 L 147.706 361.255 L 177.735 361.302 L 181.143 368.368 L 186.25 357.765 L 187.957 361.302 L 245.749 361.255 L 253.286 345.635 L 267.491 375.108 L 267.494 375.095 L 267.501 375.108 L 272.848 364.015 L 275.118 364.015 L 276.357 366.588 L 274.386 370.661 L 278.317 370.661 L 276.357 366.588 L 277.577 364.067 L 304.879 364.015 L 309.399 354.612 L 317.029 354.612 L 326.459 375.108 L 326.477 375.081 L 326.486 375.108 L 331.904 364.332 L 393.244 364.335 Z M -326.986 368.742 L -328.011 368.742 L -328.011 375.108 L -326.986 375.108 L -326.986 368.742 Z M -325.436 368.742 L -326.457 368.742 L -326.457 375.108 L -325.436 375.108 L -325.436 368.742 Z M -318.276 368.742 L -319.297 368.742 L -319.297 375.108 L -318.276 375.108 L -318.276 368.742 Z M -305.993 368.742 L -309.06 368.742 L -309.06 375.108 L -305.993 375.108 L -305.993 368.742 Z M -252.603 360.738 L -253.628 360.738 L -253.628 362.86 L -252.603 362.86 L -252.603 360.738 Z M -248.685 360.738 L -249.706 360.738 L -249.706 367.105 L -248.685 367.105 L -248.685 360.738 Z M -240.749 360.738 L -241.773 360.738 L -241.773 362.86 L -240.749 362.86 L -240.749 360.738 Z M -240.749 364.985 L -241.773 364.985 L -241.773 367.105 L -240.749 367.105 L -240.749 364.985 Z M -9.754 368.742 L -10.778 368.742 L -10.778 375.108 L -9.754 375.108 L -9.754 368.742 Z M -8.205 368.742 L -9.226 368.742 L -9.226 375.108 L -8.205 375.108 L -8.205 368.742 Z M -1.046 368.742 L -2.066 368.742 L -2.066 375.108 L -1.046 375.108 L -1.046 368.742 Z M 11.238 368.742 L 8.169 368.742 L 8.169 375.108 L 11.238 375.108 L 11.238 368.742 Z M 102.367 360.738 L 101.341 360.738 L 101.341 362.86 L 102.367 362.86 L 102.367 360.738 Z M 106.287 360.738 L 105.264 360.738 L 105.264 367.105 L 106.287 367.105 L 106.287 360.738 Z M 114.221 360.738 L 113.198 360.738 L 113.198 362.86 L 114.221 362.86 L 114.221 360.738 Z M 114.221 364.985 L 113.198 364.985 L 113.198 367.105 L 114.221 367.105 L 114.221 364.985 Z M 346.068 368.742 L 345.044 368.742 L 345.044 375.108 L 346.068 375.108 L 346.068 368.742 Z M 347.618 368.742 L 346.596 368.742 L 346.596 375.108 L 347.618 375.108 L 347.618 368.742 Z M 354.777 368.742 L 353.753 368.742 L 353.753 375.108 L 354.777 375.108 L 354.777 368.742 Z M 367.058 368.742 L 363.99 368.742 L 363.99 375.108 L 367.058 375.108 L 367.058 368.742 Z M -287.956 364.299 L -284.022 364.299 L -284.039 364.332 L -287.939 364.332 L -287.956 364.299 Z M -173.065 352.749 L -175.484 357.765 L -177.907 352.749 L -173.065 352.749 Z" data-darkreader-inline-fill="" style="--darkreader-inline-fill:#050506;" transform="matrix(-1, 0, 0, -1, 57.856995, 744.443054)"/>
  <rect x="-392.001" y="-364.785" width="710.728" height="179.047" style="stroke: rgb(6, 6, 7); paint-order: fill; fill: rgb(6, 6, 7); --darkreader-inline-stroke:#e4e2de; --darkreader-inline-fill:#e4e2de;" transform="matrix(-1, 0, 0, -1, 0, 0)" data-darkreader-inline-stroke="" data-darkreader-inline-fill=""/>
  <path fill-rule="evenodd" fill="#060607" d="M -248.245 281.125 L -248.245 312.574 L -443.479 308.864 C -443.779 308.864 -443.775 280.633 -443.475 280.633 L -434.923 281.122 L -433.068 272.216 L -429.416 254.727 L -426.98 266.385 L -414.637 266.125 L -412.658 266.125 L -407.66 290.059 L -394.374 290.059 L -391.514 276.373 L -371.429 276.447 L -369.151 287.348 L -365.734 270.989 L -364.592 276.447 L -325.94 276.373 L -320.899 252.275 L -311.398 297.746 L -311.396 297.727 L -311.391 297.746 L -307.815 280.631 L -306.298 280.631 L -305.467 284.601 L -306.785 290.887 L -304.157 290.887 L -305.467 284.601 L -304.654 280.711 L -286.39 280.631 L -283.367 266.125 L -278.264 266.125 L -271.957 297.746 L -271.948 297.705 L -271.941 297.746 L -268.318 281.122 L -248.245 281.125 Z M -421.841 275.575 L -422.526 275.575 L -422.526 278.849 L -421.841 278.849 L -421.841 275.575 Z M -419.217 275.575 L -419.903 275.575 L -419.903 285.4 L -419.217 285.4 L -419.217 275.575 Z M -413.91 275.575 L -414.595 275.575 L -414.595 278.849 L -413.91 278.849 L -413.91 275.575 Z M -413.91 282.128 L -414.595 282.128 L -414.595 285.4 L -413.91 285.4 L -413.91 282.128 Z" data-darkreader-inline-fill="" style="--darkreader-inline-fill:#050506;" transform="matrix(0, -1, 1, 0, -628.39801, -63.548996)"/>
  <path fill-rule="evenodd" fill="#060607" d="M 527.627 290.852 L 527.913 308.129 L 318.309 306.111 L 318.313 277.88 L 324.166 278.369 L 325.381 284.603 L 323.353 294.994 L 327.404 294.994 L 325.381 284.603 L 326.599 278.369 L 334.352 287.306 L 337.016 273.621 L 351.519 273.693 L 353.644 284.596 L 356.828 268.236 L 357.892 273.693 L 363.996 266.369 L 368.694 242.271 L 377.549 287.743 L 377.552 287.723 L 377.555 287.743 L 380.89 270.628 L 382.304 270.628 L 383.077 274.598 L 381.848 280.882 L 384.301 280.882 L 383.077 274.598 L 383.837 270.708 L 405.406 270.639 L 405.406 270.628 L 416.863 270.628 L 419.682 256.122 L 424.438 256.122 L 430.317 287.743 L 430.326 287.702 L 430.333 287.743 L 433.709 271.119 L 477.49 271.119 L 478.704 277.351 L 476.677 287.743 L 480.727 287.743 L 478.704 277.351 L 479.92 271.119 L 500.242 271.119 L 501.972 262.213 L 505.375 244.724 L 507.646 256.381 L 519.15 256.122 L 520.995 256.122 L 525.654 280.056 L 527.627 290.852 Z M 442.54 277.921 L 441.902 277.921 L 441.902 287.743 L 442.54 287.743 L 442.54 277.921 Z M 443.505 277.921 L 442.869 277.921 L 442.869 287.743 L 443.505 287.743 L 443.505 277.921 Z M 447.97 277.921 L 447.332 277.921 L 447.332 287.743 L 447.97 287.743 L 447.97 277.921 Z M 455.626 277.921 L 453.715 277.921 L 453.715 287.743 L 455.626 287.743 L 455.626 277.921 Z M 512.436 265.572 L 511.798 265.572 L 511.798 268.846 L 512.436 268.846 L 512.436 265.572 Z M 514.881 265.572 L 514.243 265.572 L 514.243 275.397 L 514.881 275.397 L 514.881 265.572 Z M 519.83 265.572 L 519.19 265.572 L 519.19 268.846 L 519.83 268.846 L 519.83 265.572 Z M 519.83 272.123 L 519.19 272.123 L 519.19 275.397 L 519.83 275.397 L 519.83 272.123 Z M 324.156 278.318 L 326.608 278.318 L 326.599 278.369 L 324.166 278.369 L 324.156 278.318 Z M 358.336 260.498 L 356.828 268.236 L 355.318 260.498 L 358.336 260.498 Z" data-darkreader-inline-fill="" style="--darkreader-inline-fill:#050506;" transform="matrix(0, 1, -1, 0, 698.311035, -147.911011)"/>
</svg>