<?xml version="1.0" encoding="utf-8"?>
<svg viewBox="-314.363 -75.071 1060.945 247.024" xmlns="http://www.w3.org/2000/svg">
  <path fill-rule="evenodd" fill="#060607" d="M 652.075 170.484 L 652.075 189.569 L -337.322 188.463 L -337.313 170.165 L -270.707 170.481 L -268.069 174.521 L -272.475 181.257 L -263.672 181.257 L -268.069 174.521 L -265.425 170.481 L -249.337 170.481 L -245.583 164.709 L -238.182 153.373 L -233.249 160.929 L -208.253 160.761 L -204.244 160.761 L -194.115 176.274 L -167.208 176.274 L -161.418 167.403 L -129.903 167.451 L -125.286 174.517 L -118.366 163.913 L -116.054 167.451 L -64.531 167.403 L -54.322 151.784 L -35.082 181.257 L -35.075 181.244 L -35.066 181.257 L -27.824 170.164 L -24.748 170.164 L -23.067 172.737 L -25.739 176.81 L -20.41 176.81 L -23.067 172.737 L -21.419 170.215 L 25.452 170.171 L 25.452 170.164 L 50.348 170.164 L 56.471 160.761 L 66.81 160.761 L 79.582 181.257 L 79.602 181.23 L 79.616 181.257 L 86.951 170.481 L 182.089 170.481 L 184.727 174.521 L 180.321 181.257 L 189.124 181.257 L 184.727 174.521 L 187.371 170.481 L 231.531 170.481 L 235.286 164.709 L 242.684 153.373 L 247.617 160.929 L 272.617 160.761 L 276.626 160.761 L 286.751 176.274 L 313.661 176.274 L 319.451 167.403 L 360.131 167.451 L 364.748 174.517 L 371.668 163.913 L 373.98 167.451 L 452.266 167.403 L 462.478 151.784 L 481.721 181.257 L 481.726 181.244 L 481.735 181.257 L 488.979 170.164 L 492.049 170.164 L 493.731 172.737 L 491.062 176.81 L 496.387 176.81 L 493.731 172.737 L 495.378 170.215 L 532.371 170.164 L 538.494 160.761 L 548.829 160.761 L 561.606 181.257 L 561.624 181.23 L 561.638 181.257 L 568.976 170.481 L 652.075 170.484 Z M -323.6 174.891 L -324.991 174.891 L -324.991 181.257 L -323.6 181.257 L -323.6 174.891 Z M -321.501 174.891 L -322.887 174.891 L -322.887 181.257 L -321.501 181.257 L -321.501 174.891 Z M -311.804 174.891 L -313.188 174.891 L -313.188 181.257 L -311.804 181.257 L -311.804 174.891 Z M -295.165 174.891 L -299.321 174.891 L -299.321 181.257 L -295.165 181.257 L -295.165 174.891 Z M -222.84 166.886 L -224.228 166.886 L -224.228 169.008 L -222.84 169.008 L -222.84 166.886 Z M -217.528 166.886 L -218.915 166.886 L -218.915 173.254 L -217.528 173.254 L -217.528 166.886 Z M -206.779 166.886 L -208.167 166.886 L -208.167 169.008 L -206.779 169.008 L -206.779 166.886 Z M -206.779 171.133 L -208.167 171.133 L -208.167 173.254 L -206.779 173.254 L -206.779 171.133 Z M 106.143 174.891 L 104.756 174.891 L 104.756 181.257 L 106.143 181.257 L 106.143 174.891 Z M 108.243 174.891 L 106.859 174.891 L 106.859 181.257 L 108.243 181.257 L 108.243 174.891 Z M 117.942 174.891 L 116.556 174.891 L 116.556 181.257 L 117.942 181.257 L 117.942 174.891 Z M 134.58 174.891 L 130.426 174.891 L 130.426 181.257 L 134.58 181.257 L 134.58 174.891 Z M 258.028 166.886 L 256.64 166.886 L 256.64 169.008 L 258.028 169.008 L 258.028 166.886 Z M 263.341 166.886 L 261.953 166.886 L 261.953 173.254 L 263.341 173.254 L 263.341 166.886 Z M 274.091 166.886 L 272.703 166.886 L 272.703 169.008 L 274.091 169.008 L 274.091 166.886 Z M 274.091 171.133 L 272.703 171.133 L 272.703 173.254 L 274.091 173.254 L 274.091 171.133 Z M 588.167 174.891 L 586.779 174.891 L 586.779 181.257 L 588.167 181.257 L 588.167 174.891 Z M 590.266 174.891 L 588.882 174.891 L 588.882 181.257 L 590.266 181.257 L 590.266 174.891 Z M 599.965 174.891 L 598.579 174.891 L 598.579 181.257 L 599.965 181.257 L 599.965 174.891 Z M 616.603 174.891 L 612.446 174.891 L 612.446 181.257 L 616.603 181.257 L 616.603 174.891 Z M -270.728 170.448 L -265.403 170.448 L -265.425 170.481 L -270.707 170.481 L -270.728 170.448 Z M -115.09 158.898 L -118.366 163.913 L -121.649 158.898 L -115.09 158.898 Z" data-darkreader-inline-fill="" style="--darkreader-inline-fill:#050506;" transform="matrix(1, 0, 0, 1, 50.868256, -226.854568)"/>
  <path fill-rule="evenodd" fill="#060607" d="M 660.335 364.161 L 660.248 398.808 L -321.638 390.949 L -321.179 364.374 L -258.177 364.332 L -255.572 368.373 L -259.921 375.108 L -251.23 375.108 L -255.572 368.373 L -252.96 364.332 L -237.079 364.332 L -233.371 358.561 L -226.066 347.224 L -221.195 354.781 L -196.512 354.612 L -192.556 354.612 L -182.557 370.126 L -155.991 370.126 L -150.276 361.255 L -119.158 361.302 L -114.599 368.368 L -107.768 357.765 L -105.485 361.302 L -54.614 361.255 L -44.536 345.635 L -25.537 375.108 L -25.532 375.095 L -25.523 375.108 L -18.372 364.015 L -15.339 364.015 L -13.678 366.588 L -16.314 370.661 L -11.055 370.661 L -13.678 366.588 L -12.051 364.067 L 34.228 364.022 L 34.228 364.015 L 58.806 364.015 L 64.852 354.612 L 75.057 354.612 L 87.672 375.108 L 87.69 375.081 L 87.708 375.108 L 94.951 364.332 L 188.879 364.332 L 191.484 368.373 L 187.135 375.108 L 195.824 375.108 L 191.484 368.373 L 194.097 364.332 L 237.695 364.332 L 241.4 358.561 L 248.708 347.224 L 253.581 354.781 L 278.263 354.612 L 282.218 354.612 L 292.219 370.126 L 318.784 370.126 L 324.5 361.255 L 364.664 361.302 L 369.222 368.368 L 376.052 357.765 L 378.336 361.302 L 455.632 361.255 L 465.713 345.635 L 484.712 375.108 L 484.717 375.095 L 484.726 375.108 L 491.877 364.015 L 494.913 364.015 L 496.571 366.588 L 493.935 370.661 L 499.192 370.661 L 496.571 366.588 L 498.202 364.067 L 534.719 364.015 L 540.765 354.612 L 550.97 354.612 L 563.583 375.108 L 563.607 375.081 L 563.619 375.108 L 570.865 364.332 L 660.335 364.161 Z M -310.402 368.742 L -311.773 368.742 L -311.773 375.108 L -310.402 375.108 L -310.402 368.742 Z M -308.329 368.742 L -309.695 368.742 L -309.695 375.108 L -308.329 375.108 L -308.329 368.742 Z M -298.752 368.742 L -300.118 368.742 L -300.118 375.108 L -298.752 375.108 L -298.752 368.742 Z M -282.324 368.742 L -286.426 368.742 L -286.426 375.108 L -282.324 375.108 L -282.324 368.742 Z M -210.915 360.738 L -212.285 360.738 L -212.285 362.86 L -210.915 362.86 L -210.915 360.738 Z M -205.674 360.738 L -207.04 360.738 L -207.04 367.105 L -205.674 367.105 L -205.674 360.738 Z M -195.06 360.738 L -196.429 360.738 L -196.429 362.86 L -195.06 362.86 L -195.06 360.738 Z M -195.06 364.985 L -196.429 364.985 L -196.429 367.105 L -195.06 367.105 L -195.06 364.985 Z M 113.897 368.742 L 112.527 368.742 L 112.527 375.108 L 113.897 375.108 L 113.897 368.742 Z M 115.969 368.742 L 114.603 368.742 L 114.603 375.108 L 115.969 375.108 L 115.969 368.742 Z M 125.543 368.742 L 124.179 368.742 L 124.179 375.108 L 125.543 375.108 L 125.543 368.742 Z M 141.974 368.742 L 137.869 368.742 L 137.869 375.108 L 141.974 375.108 L 141.974 368.742 Z M 263.859 360.738 L 262.486 360.738 L 262.486 362.86 L 263.859 362.86 L 263.859 360.738 Z M 269.102 360.738 L 267.734 360.738 L 267.734 367.105 L 269.102 367.105 L 269.102 360.738 Z M 279.714 360.738 L 278.345 360.738 L 278.345 362.86 L 279.714 362.86 L 279.714 360.738 Z M 279.714 364.985 L 278.345 364.985 L 278.345 367.105 L 279.714 367.105 L 279.714 364.985 Z M 589.81 368.742 L 588.44 368.742 L 588.44 375.108 L 589.81 375.108 L 589.81 368.742 Z M 591.882 368.742 L 590.516 368.742 L 590.516 375.108 L 591.882 375.108 L 591.882 368.742 Z M 601.458 368.742 L 600.088 368.742 L 600.088 375.108 L 601.458 375.108 L 601.458 368.742 Z M 617.884 368.742 L 613.78 368.742 L 613.78 375.108 L 617.884 375.108 L 617.884 368.742 Z M -258.199 364.299 L -252.938 364.299 L -252.96 364.332 L -258.177 364.332 L -258.199 364.299 Z M -104.533 352.749 L -107.768 357.765 L -111.008 352.749 L -104.533 352.749 Z" data-darkreader-inline-fill="" style="--darkreader-inline-fill:#050506;" transform="matrix(-1, 0, 0, -1, 382.138275, 517.588501)"/>
  <rect x="-702.393" y="-136.191" width="979.721" height="179.047" style="stroke: rgb(6, 6, 7); paint-order: fill; fill: rgb(6, 6, 7); --darkreader-inline-stroke:#e4e2de; --darkreader-inline-fill:#e4e2de;" transform="matrix(-1, 0, 0, -1, 0, 0)" data-darkreader-inline-stroke="" data-darkreader-inline-fill=""/>
  <path fill-rule="evenodd" fill="#060607" d="M -190.456 48.174 L -190.456 67.259 L -400.486 66.82 L -400.477 45.981 L -347.505 45.784 L -337.313 29.474 L -318.105 58.947 L -318.098 58.934 L -318.089 58.947 L -310.859 47.854 L -307.788 47.854 L -306.11 50.427 L -308.777 54.5 L -303.457 54.5 L -306.11 50.427 L -304.465 47.905 L -257.671 47.861 L -257.671 47.854 L -232.816 47.854 L -226.703 38.451 L -216.382 38.451 L -203.631 58.947 L -203.611 58.92 L -203.597 58.947 L -196.274 48.171 L -190.456 48.174 Z" data-darkreader-inline-fill="" style="--darkreader-inline-fill:#050506;" transform="matrix(0, -1, 1, 0, -343.837494, -247.104492)"/>
  <path fill-rule="evenodd" fill="#060607" d="M 440.409 423.76 L 440.2 461.326 L 230.597 453.284 L 231.056 426.709 L 294.058 426.667 L 296.663 430.708 L 292.314 437.443 L 301.005 437.443 L 296.663 430.708 L 299.275 426.667 L 315.156 426.667 L 318.864 420.896 L 326.169 409.559 L 331.04 417.116 L 355.723 416.947 L 359.679 416.947 L 369.678 432.461 L 396.244 432.461 L 401.959 423.59 L 440.409 423.76 Z M 241.833 431.077 L 240.462 431.077 L 240.462 437.443 L 241.833 437.443 L 241.833 431.077 Z M 243.906 431.077 L 242.54 431.077 L 242.54 437.443 L 243.906 437.443 L 243.906 431.077 Z M 253.483 431.077 L 252.117 431.077 L 252.117 437.443 L 253.483 437.443 L 253.483 431.077 Z M 269.911 431.077 L 265.809 431.077 L 265.809 437.443 L 269.911 437.443 L 269.911 431.077 Z M 341.32 423.073 L 339.95 423.073 L 339.95 425.195 L 341.32 425.195 L 341.32 423.073 Z M 346.561 423.073 L 345.195 423.073 L 345.195 429.44 L 346.561 429.44 L 346.561 423.073 Z M 357.175 423.073 L 355.806 423.073 L 355.806 425.195 L 357.175 425.195 L 357.175 423.073 Z M 357.175 427.32 L 355.806 427.32 L 355.806 429.44 L 357.175 429.44 L 357.175 427.32 Z M 294.036 426.634 L 299.297 426.634 L 299.275 426.667 L 294.058 426.667 L 294.036 426.634 Z" data-darkreader-inline-fill="" style="--darkreader-inline-fill:#050506;" transform="matrix(0, 1, -1, 0, 1156.140015, -287.026978)"/>
</svg>