<?xml version="1.0" encoding="utf-8"?>
<svg viewBox="-374.637 151.784 1092.184 171.927" xmlns="http://www.w3.org/2000/svg">
  <path fill-rule="evenodd" fill="#060607" d="M 695.094 164.799 L 695.094 188.792 L -363.036 177.312 L -363.025 164.577 L -291.794 164.797 L -288.972 167.609 L -293.684 172.297 L -284.269 172.297 L -288.972 167.609 L -286.144 164.797 L -268.939 164.797 L -264.923 160.78 L -257.011 152.89 L -251.735 158.149 L -224.999 158.032 L -220.713 158.032 L -209.882 168.829 L -181.105 168.829 L -174.912 162.655 L -141.207 162.688 L -136.27 167.606 L -128.869 160.226 L -126.396 162.688 L -71.295 162.655 L -60.376 151.784 L -39.798 172.297 L -39.791 172.288 L -39.782 172.297 L -32.036 164.576 L -28.749 164.576 L -26.952 166.367 L -29.807 169.202 L -24.111 169.202 L -26.952 166.367 L -25.188 164.612 L 24.939 164.581 L 24.939 164.576 L 51.565 164.576 L 58.113 158.032 L 69.169 158.032 L 82.831 172.297 L 82.851 172.278 L 82.867 172.297 L 90.714 164.797 L 192.457 164.797 L 195.279 167.609 L 190.567 172.297 L 199.982 172.297 L 195.279 167.609 L 198.107 164.797 L 245.336 164.797 L 249.352 160.78 L 257.264 152.89 L 262.54 158.149 L 289.276 158.032 L 293.562 158.032 L 304.393 168.829 L 333.17 168.829 L 339.363 162.655 L 382.868 162.688 L 387.805 167.606 L 395.206 160.226 L 397.679 162.688 L 481.407 162.655 L 492.326 151.784 L 512.904 172.297 L 512.911 172.288 L 512.92 172.297 L 520.666 164.576 L 523.953 164.576 L 525.75 166.367 L 522.895 169.202 L 528.591 169.202 L 525.75 166.367 L 527.514 164.612 L 567.074 164.576 L 573.622 158.032 L 584.678 158.032 L 598.34 172.297 L 598.36 172.278 L 598.376 172.297 L 606.223 164.797 L 695.094 164.799 Z M -348.363 167.866 L -349.847 167.866 L -349.847 172.297 L -348.363 172.297 L -348.363 167.866 Z M -346.118 167.866 L -347.598 167.866 L -347.598 172.297 L -346.118 172.297 L -346.118 167.866 Z M -335.745 167.866 L -337.226 167.866 L -337.226 172.297 L -335.745 172.297 L -335.745 167.866 Z M -317.95 167.866 L -322.395 167.866 L -322.395 172.297 L -317.95 172.297 L -317.95 167.866 Z M -240.601 162.295 L -242.085 162.295 L -242.085 163.772 L -240.601 163.772 L -240.601 162.295 Z M -234.919 162.295 L -236.403 162.295 L -236.403 166.727 L -234.919 166.727 L -234.919 162.295 Z M -223.424 162.295 L -224.908 162.295 L -224.908 163.772 L -223.424 163.772 L -223.424 162.295 Z M -223.424 165.251 L -224.908 165.251 L -224.908 166.727 L -223.424 166.727 L -223.424 165.251 Z M 111.237 167.866 L 109.753 167.866 L 109.753 172.297 L 111.237 172.297 L 111.237 167.866 Z M 113.482 167.866 L 112.002 167.866 L 112.002 172.297 L 113.482 172.297 L 113.482 167.866 Z M 123.855 167.866 L 122.374 167.866 L 122.374 172.297 L 123.855 172.297 L 123.855 167.866 Z M 141.65 167.866 L 137.205 167.866 L 137.205 172.297 L 141.65 172.297 L 141.65 167.866 Z M 273.674 162.295 L 272.19 162.295 L 272.19 163.772 L 273.674 163.772 L 273.674 162.295 Z M 279.356 162.295 L 277.872 162.295 L 277.872 166.727 L 279.356 166.727 L 279.356 162.295 Z M 290.851 162.295 L 289.367 162.295 L 289.367 163.772 L 290.851 163.772 L 290.851 162.295 Z M 290.851 165.251 L 289.367 165.251 L 289.367 166.727 L 290.851 166.727 L 290.851 165.251 Z M 626.746 167.866 L 625.262 167.866 L 625.262 172.297 L 626.746 172.297 L 626.746 167.866 Z M 628.991 167.866 L 627.511 167.866 L 627.511 172.297 L 628.991 172.297 L 628.991 167.866 Z M 639.364 167.866 L 637.883 167.866 L 637.883 172.297 L 639.364 172.297 L 639.364 167.866 Z M 657.159 167.866 L 652.714 167.866 L 652.714 172.297 L 657.159 172.297 L 657.159 167.866 Z M -291.816 164.774 L -286.121 164.774 L -286.144 164.797 L -291.794 164.797 L -291.816 164.774 Z M -125.367 156.735 L -128.869 160.226 L -132.381 156.735 L -125.367 156.735 Z" data-darkreader-inline-fill="" style="--darkreader-inline-fill:#050506;"/>
  <path fill-rule="evenodd" fill="#060607" d="M 697.882 299.718 L 697.882 323.711 L -357.746 318.241 L -357.248 299.745 L -289.006 299.716 L -286.184 302.528 L -290.896 307.216 L -281.481 307.216 L -286.184 302.528 L -283.356 299.716 L -266.151 299.716 L -262.135 295.699 L -254.223 287.809 L -248.947 293.068 L -222.211 292.951 L -217.925 292.951 L -207.094 303.748 L -178.317 303.748 L -172.124 297.574 L -138.419 297.607 L -133.482 302.525 L -126.081 295.145 L -123.608 297.607 L -68.507 297.574 L -57.588 286.703 L -37.01 307.216 L -37.003 307.207 L -36.994 307.216 L -29.248 299.495 L -25.961 299.495 L -24.164 301.286 L -27.019 304.121 L -21.323 304.121 L -24.164 301.286 L -22.4 299.531 L 27.727 299.5 L 27.727 299.495 L 54.353 299.495 L 60.901 292.951 L 71.957 292.951 L 85.619 307.216 L 85.639 307.197 L 85.655 307.216 L 93.502 299.716 L 195.245 299.716 L 198.067 302.528 L 193.355 307.216 L 202.77 307.216 L 198.067 302.528 L 200.895 299.716 L 248.124 299.716 L 252.14 295.699 L 260.052 287.809 L 265.328 293.068 L 292.064 292.951 L 296.35 292.951 L 307.181 303.748 L 335.958 303.748 L 342.151 297.574 L 385.656 297.607 L 390.593 302.525 L 397.994 295.145 L 400.467 297.607 L 484.195 297.574 L 495.114 286.703 L 515.692 307.216 L 515.699 307.207 L 515.708 307.216 L 523.454 299.495 L 526.741 299.495 L 528.538 301.286 L 525.683 304.121 L 531.379 304.121 L 528.538 301.286 L 530.302 299.531 L 569.862 299.495 L 576.41 292.951 L 587.466 292.951 L 601.128 307.216 L 601.148 307.197 L 601.164 307.216 L 609.011 299.716 L 697.882 299.718 Z M -345.575 302.785 L -347.059 302.785 L -347.059 307.216 L -345.575 307.216 L -345.575 302.785 Z M -343.33 302.785 L -344.81 302.785 L -344.81 307.216 L -343.33 307.216 L -343.33 302.785 Z M -332.957 302.785 L -334.438 302.785 L -334.438 307.216 L -332.957 307.216 L -332.957 302.785 Z M -315.162 302.785 L -319.607 302.785 L -319.607 307.216 L -315.162 307.216 L -315.162 302.785 Z M -237.813 297.214 L -239.297 297.214 L -239.297 298.691 L -237.813 298.691 L -237.813 297.214 Z M -232.131 297.214 L -233.615 297.214 L -233.615 301.646 L -232.131 301.646 L -232.131 297.214 Z M -220.636 297.214 L -222.12 297.214 L -222.12 298.691 L -220.636 298.691 L -220.636 297.214 Z M -220.636 300.17 L -222.12 300.17 L -222.12 301.646 L -220.636 301.646 L -220.636 300.17 Z M 114.025 302.785 L 112.541 302.785 L 112.541 307.216 L 114.025 307.216 L 114.025 302.785 Z M 116.27 302.785 L 114.79 302.785 L 114.79 307.216 L 116.27 307.216 L 116.27 302.785 Z M 126.643 302.785 L 125.162 302.785 L 125.162 307.216 L 126.643 307.216 L 126.643 302.785 Z M 144.438 302.785 L 139.993 302.785 L 139.993 307.216 L 144.438 307.216 L 144.438 302.785 Z M 276.462 297.214 L 274.978 297.214 L 274.978 298.691 L 276.462 298.691 L 276.462 297.214 Z M 282.144 297.214 L 280.66 297.214 L 280.66 301.646 L 282.144 301.646 L 282.144 297.214 Z M 293.639 297.214 L 292.155 297.214 L 292.155 298.691 L 293.639 298.691 L 293.639 297.214 Z M 293.639 300.17 L 292.155 300.17 L 292.155 301.646 L 293.639 301.646 L 293.639 300.17 Z M 629.534 302.785 L 628.05 302.785 L 628.05 307.216 L 629.534 307.216 L 629.534 302.785 Z M 631.779 302.785 L 630.299 302.785 L 630.299 307.216 L 631.779 307.216 L 631.779 302.785 Z M 642.152 302.785 L 640.671 302.785 L 640.671 307.216 L 642.152 307.216 L 642.152 302.785 Z M 659.947 302.785 L 655.502 302.785 L 655.502 307.216 L 659.947 307.216 L 659.947 302.785 Z M -289.028 299.693 L -283.333 299.693 L -283.356 299.716 L -289.006 299.716 L -289.028 299.693 Z M -122.579 291.654 L -126.081 295.145 L -129.593 291.654 L -122.579 291.654 Z" data-darkreader-inline-fill="" style="--darkreader-inline-fill:#050506;" transform="matrix(-1, 0, 0, -1, 340.136047, 610.414001)"/>
  <path fill-rule="evenodd" fill="#060607" d="M 617.987 394.102 L 618.022 413.123 C 616.827 412.526 471.921 412.931 471.921 412.931 L 472.005 394.435 L 472.819 392.264 L 484.877 392.025 L 504.316 401.906 L 504.323 401.897 L 504.332 401.906 L 512.078 394.185 L 515.365 394.185 L 517.162 395.976 L 514.307 398.811 L 520.003 398.811 L 517.162 395.976 L 518.926 394.221 L 529.16 394.19 L 529.16 394.185 L 540.142 394.185 L 546.69 387.641 L 557.746 387.641 L 571.408 401.906 L 571.428 401.887 L 571.444 401.906 L 579.291 394.406 L 617.987 394.102 Z M 584.633 399.597 L 583.149 399.597 L 583.149 404.028 L 584.633 404.028 L 584.633 399.597 Z M 586.878 399.597 L 585.398 399.597 L 585.398 404.028 L 586.878 404.028 L 586.878 399.597 Z M 597.251 399.597 L 595.77 399.597 L 595.77 404.028 L 597.251 404.028 L 597.251 399.597 Z M 611.375 399.381 L 606.93 399.381 C 606.93 399.456 606.93 405.376 606.93 403.812 L 611.375 403.812 L 611.375 399.381 Z" data-darkreader-inline-fill="" style="--darkreader-inline-fill:#050506;" transform="matrix(-0.000001, 1, -1, -0.000001, 1105.188232, -307.276123)"/>
  <path fill-rule="evenodd" fill="#060607" d="M -317.314 249.861 L -318.075 269.232 L -407.459 269.402 L -407.811 251.331 L -407.328 250.792 L -403.312 246.775 L -395.4 238.885 L -390.124 244.144 L -363.388 244.027 L -359.102 244.027 L -348.271 254.824 L -329.477 255.564 L -318.884 247.492 L -317.314 249.861 Z M -378.99 248.29 L -380.474 248.29 L -380.474 249.767 L -378.99 249.767 L -378.99 248.29 Z M -373.308 248.29 L -374.792 248.29 L -374.792 252.722 L -373.308 252.722 L -373.308 248.29 Z M -361.813 248.29 L -363.297 248.29 L -363.297 249.767 L -361.813 249.767 L -361.813 248.29 Z M -361.813 251.246 L -363.297 251.246 L -363.297 252.722 L -361.813 252.722 L -361.813 251.246 Z" data-darkreader-inline-fill="" style="--darkreader-inline-fill:#050506;" transform="matrix(0.000001, -1, 1, 0.000001, -609.143616, -97.355263)"/>
  <path fill-rule="evenodd" fill="#060607" d="M -333.087 193.226 L -333.24 180.096 L -390.043 182.396 L -390.032 195.131 L -383.15 195.37 L -372.231 206.241 L -351.653 185.728 L -351.646 185.737 L -351.637 185.728 L -343.891 193.449 L -340.604 193.449 L -338.807 191.658 L -341.662 188.823 L -335.966 188.823 L -338.807 191.658 L -337.043 193.413 L -333.087 193.226 Z" data-darkreader-inline-fill="" style="--darkreader-inline-fill:#050506;" transform="matrix(0, 1, -1, 0, -168.3965, 554.733521)"/>
  <rect x="-292.049" y="-300.031" width="642.28" height="124.615" style="stroke: rgb(6, 6, 7); paint-order: fill; fill: rgb(6, 6, 7);" transform="matrix(-1, 0, 0, -1, 0, 0)"/>
  <rect x="287.543" y="177.622" width="410.052" height="121.225" style="stroke: rgb(6, 6, 7); paint-order: fill; fill: rgb(6, 6, 7);"/>
</svg>