<?xml version="1.0" standalone="no"?>
<!DOCTYPE svg PUBLIC "-//W3C//DTD SVG 20010904//EN"
 "http://www.w3.org/TR/2001/REC-SVG-20010904/DTD/svg10.dtd">
<svg version="1.0" xmlns="http://www.w3.org/2000/svg"
 width="180.000000pt" height="220.000000pt" viewBox="200 130 360.000000 100.000000"
 preserveAspectRatio="xMidYMid meet" style="transform: rotate(180deg)">

<g transform="translate(0.000000,400.000000) scale(0.100000,-0.100000)"
fill="#31d4ed" stroke="none">
<path d="M3965 3905 c-34 -33 -32 -70 5 -107 26 -26 30 -37 30 -87 l0 -57 70
-69 70 -69 0 -171 0 -171 -60 -59 -60 -59 -50 49 -50 49 0 123 c0 75 4 123 10
123 21 0 50 41 50 70 0 38 -39 80 -74 80 -14 0 -37 -11 -52 -23 -37 -32 -37
-81 -1 -113 27 -23 27 -25 27 -151 l0 -129 60 -59 60 -59 0 -286 0 -286 -75
-74 -75 -75 -77 78 -78 77 63 63 62 63 0 85 c0 81 1 85 30 111 38 34 40 78 5
113 -33 34 -70 32 -107 -5 -35 -36 -33 -71 7 -107 23 -20 25 -29 25 -105 l0
-84 -55 -54 -55 -54 -40 39 -40 39 0 231 0 230 80 80 80 80 0 221 0 222 30 30
c35 36 38 69 9 106 -35 45 -105 33 -128 -22 -14 -34 -2 -76 29 -92 19 -10 20
-19 20 -228 l0 -217 -80 -80 -80 -80 0 -60 0 -60 -55 57 -55 56 0 272 0 272
30 28 c40 37 42 89 4 119 -15 12 -37 21 -49 21 -12 0 -34 -9 -49 -21 -36 -29
-37 -89 -1 -118 l26 -20 2 -190 c1 -105 1 -191 1 -191 -1 0 -35 34 -75 76 -64
66 -73 79 -71 108 6 67 -68 107 -121 66 -61 -48 -17 -149 59 -137 28 5 39 -3
119 -83 l88 -89 -2 -63 -2 -63 76 -75 75 -74 0 -161 0 -160 140 -140 140 -140
0 -137 0 -138 -68 0 c-63 0 -69 2 -94 30 -34 38 -78 40 -113 5 -33 -32 -33
-74 0 -105 34 -32 83 -30 113 5 20 24 30 27 92 28 l70 2 0 -80 0 -81 -60 -59
-60 -59 0 -458 0 -458 -35 -119 c-19 -65 -35 -128 -35 -139 0 -12 -4 -22 -10
-22 -6 0 -10 -70 -10 -190 l0 -190 45 0 45 0 0 185 c0 156 -2 187 -15 191 -22
9 -19 33 20 161 l35 116 0 456 0 457 60 59 60 59 0 236 0 235 85 85 85 85 0
295 0 296 70 69 70 69 0 176 0 176 68 67 c61 61 71 67 98 61 73 -14 117 84 60
133 -35 30 -71 29 -102 -3 -20 -19 -25 -33 -22 -59 4 -31 -2 -41 -59 -97 l-63
-62 -60 59 c-58 57 -60 61 -60 111 0 45 4 57 31 84 26 26 30 36 25 63 -13 65
-85 89 -131 42z m85 -30 c23 -28 -9 -72 -45 -59 -36 14 -24 74 15 74 10 0 23
-7 30 -15z m334 -141 c29 -29 -17 -80 -49 -54 -18 15 -19 42 -3 58 16 16 33
15 52 -4z m-624 -9 c18 -21 3 -55 -24 -55 -33 0 -50 23 -36 49 12 24 42 27 60
6z m-312 -37 c17 -17 15 -43 -4 -59 -31 -26 -70 25 -44 56 15 18 32 19 48 3z
m480 -190 c18 -18 14 -46 -8 -58 -23 -12 -35 -7 -50 20 -18 33 31 65 58 38z
m-720 -80 c28 -28 1 -75 -38 -63 -33 11 -21 75 15 75 6 0 16 -5 23 -12z m620
-560 c19 -19 14 -46 -9 -59 -18 -9 -25 -7 -41 9 -16 16 -18 23 -9 41 13 23 40
28 59 9z m-187 -870 c10 -18 8 -24 -11 -40 -38 -31 -83 15 -48 50 19 19 46 14
59 -10z"/>
<path d="M4593 3604 c-20 -20 -24 -32 -20 -58 5 -30 0 -39 -54 -92 l-59 -58 0
-106 0 -105 -104 -104 -105 -104 -3 -486 -3 -486 -208 -205 -207 -205 0 -425
0 -425 35 -114 c39 -126 42 -151 20 -151 -13 0 -15 -28 -15 -190 l0 -190 45 0
45 0 0 184 c0 113 -4 187 -10 191 -5 3 -10 15 -10 26 0 12 -16 73 -35 137
l-35 116 0 410 0 410 117 118 118 118 195 0 195 0 125 125 125 125 155 0 156
0 69 -70 c62 -63 69 -74 70 -111 2 -74 79 -106 130 -54 31 31 32 66 1 102 -19
22 -31 27 -63 26 -36 -2 -45 4 -106 65 l-67 68 54 53 c46 45 58 53 80 47 30
-7 80 15 90 39 12 33 5 66 -19 90 -30 31 -66 32 -101 2 -22 -19 -27 -32 -26
-63 1 -35 -4 -45 -55 -96 l-57 -58 -128 0 c-70 0 -128 3 -128 8 0 4 55 62 123
129 101 102 126 122 144 117 39 -11 73 4 89 40 14 29 15 37 3 62 -39 80 -153
54 -147 -34 2 -30 -16 -51 -267 -302 l-270 -270 -165 0 -164 0 67 68 68 68 6
145 5 144 126 128 127 127 120 0 120 0 157 157 c155 154 158 157 197 154 51
-3 81 24 81 74 0 46 -29 75 -75 75 -48 0 -78 -33 -73 -82 3 -37 -1 -42 -134
-175 l-138 -138 0 131 0 130 50 49 c45 45 54 49 91 46 63 -4 98 40 78 99 -30
86 -160 54 -146 -36 5 -28 -1 -38 -54 -90 l-59 -58 0 -148 0 -148 -100 0 -100
0 0 65 c0 55 3 68 25 89 33 33 33 79 0 111 -30 30 -64 32 -99 4 -39 -31 -37
-90 4 -121 28 -20 30 -26 30 -88 l0 -65 -115 -115 -115 -115 0 310 0 311 58
57 58 57 94 0 95 0 98 98 c85 85 102 98 126 94 41 -6 84 35 84 78 0 46 -44 84
-87 76 -45 -9 -69 -42 -63 -87 5 -35 1 -41 -87 -128 l-91 -91 -65 0 -64 0 27
28 c26 27 27 33 27 133 l0 105 53 51 c46 45 57 51 91 50 31 -1 43 5 63 28 66
76 -42 170 -114 99z m91 -36 c8 -14 6 -22 -10 -38 -23 -24 -50 -18 -59 11 -14
43 45 65 69 27z m170 -204 c9 -8 16 -19 16 -24 0 -13 -30 -40 -44 -40 -17 0
-36 21 -36 40 0 19 19 40 36 40 7 0 20 -7 28 -16z m125 -323 c14 -26 -8 -54
-39 -49 -28 3 -38 31 -20 53 17 21 47 19 59 -4z m196 -126 c0 -27 -3 -30 -30
-30 -21 0 -31 5 -33 18 -6 33 6 49 35 45 24 -3 28 -8 28 -33z m-615 -110 c26
-31 -13 -82 -44 -56 -19 16 -21 57 -3 64 22 9 34 7 47 -8z m554 -354 c33 -36
-18 -83 -52 -49 -17 17 -15 45 6 57 24 14 26 14 46 -8z m154 -163 c18 -18 14
-46 -8 -58 -23 -12 -35 -7 -50 20 -18 33 31 65 58 38z m26 -384 c20 -19 20
-38 1 -54 -18 -15 -45 -10 -59 12 -8 13 -6 22 8 37 23 25 30 26 50 5z"/>
<path d="M2713 3258 c-33 -16 -48 -61 -33 -97 13 -34 58 -56 90 -46 18 6 35
-5 91 -61 l69 -68 0 -123 0 -123 -128 0 -127 0 -100 100 c-93 93 -99 102 -96
136 4 48 -29 84 -76 84 -44 0 -73 -30 -73 -75 0 -47 29 -75 78 -75 34 0 46 -9
142 -105 l105 -105 143 0 143 0 100 -101 99 -101 0 -229 0 -229 -115 0 -115 0
0 153 0 152 -95 95 c-89 89 -95 97 -89 127 5 27 1 37 -25 64 -27 26 -37 30
-64 25 -62 -12 -87 -79 -48 -127 13 -17 29 -23 60 -24 38 -1 48 -8 131 -90
l90 -90 0 -142 0 -143 -103 0 -102 0 -85 85 c-76 76 -88 85 -122 85 -27 0 -44
7 -66 30 -38 38 -66 38 -103 1 -33 -33 -35 -50 -14 -90 26 -51 83 -56 125 -11
43 46 65 40 147 -42 l73 -72 -42 -43 c-40 -41 -45 -43 -101 -43 -51 0 -62 3
-79 25 -46 58 -148 13 -134 -60 13 -67 88 -87 136 -35 23 25 36 30 74 30 l46
0 0 -46 c0 -37 -5 -52 -25 -70 -53 -49 -21 -134 50 -134 73 0 102 85 45 133
-26 22 -30 33 -30 74 0 45 4 52 48 96 l48 47 250 0 249 0 90 -90 90 -90 -68
-67 -67 -68 -50 50 c-42 41 -50 55 -50 85 0 45 -33 80 -76 80 -56 0 -92 -67
-64 -120 12 -23 59 -39 85 -30 16 6 33 -5 87 -58 l67 -65 83 81 84 81 117
-117 117 -117 0 -95 0 -94 -48 47 -48 47 -94 0 -95 0 -80 -80 -80 -80 -75 75
-74 75 -154 0 -154 0 -28 30 c-31 34 -64 38 -98 14 -49 -34 -48 -97 2 -130 32
-20 69 -12 100 21 23 24 27 25 168 25 l145 0 69 -70 70 -69 -86 -86 c-85 -85
-86 -85 -137 -85 -44 0 -56 4 -81 30 -34 34 -50 36 -91 15 -67 -34 -50 -127
26 -141 27 -5 37 -1 63 25 29 28 37 31 93 31 l62 0 180 180 180 180 75 0 74 0
58 -57 58 -57 0 -271 -1 -270 -104 -112 c-85 -91 -105 -119 -105 -143 0 -16
-4 -30 -10 -30 -6 0 -10 -70 -10 -190 l0 -190 45 0 45 0 0 185 c0 156 -2 187
-15 191 -33 13 -12 50 90 160 l105 114 0 412 0 413 -160 160 -160 161 45 44
45 44 0 311 0 311 -60 59 c-54 54 -60 63 -60 101 0 75 -75 110 -125 59 -33
-33 -33 -78 1 -112 21 -21 32 -24 62 -19 34 5 41 2 89 -46 l53 -52 0 -296 0
-296 -40 -39 -40 -39 -55 54 -55 54 0 241 0 240 -105 105 -105 105 0 135 0
136 -75 74 c-63 63 -75 79 -70 99 8 33 -11 76 -41 90 -30 13 -42 13 -71 -1z
m61 -44 c9 -8 16 -19 16 -24 0 -13 -30 -40 -44 -40 -17 0 -36 21 -36 40 0 19
19 40 36 40 7 0 20 -7 28 -16z m-339 -229 c0 -27 -3 -30 -30 -30 -21 0 -31 5
-33 18 -6 33 6 49 35 45 24 -3 28 -8 28 -33z m803 -187 c17 -17 15 -43 -4 -59
-31 -26 -70 25 -44 56 15 18 32 19 48 3z m-564 -194 c9 -8 16 -19 16 -24 0
-13 -30 -40 -44 -40 -17 0 -36 21 -36 40 0 19 19 40 36 40 7 0 20 -7 28 -16z
m-309 -390 c19 -20 16 -43 -7 -58 -21 -13 -51 2 -56 26 -3 16 23 48 38 48 5 0
16 -7 25 -16z m10 -284 c14 -43 -44 -67 -68 -28 -8 12 -7 21 2 32 19 23 58 20
66 -4z m683 -99 c5 -32 -23 -54 -49 -40 -19 10 -26 49 -12 63 4 4 19 6 33 4
18 -2 26 -10 28 -27z m-485 -92 c15 -24 1 -49 -27 -49 -31 0 -48 27 -34 53 11
22 46 19 61 -4z m67 -284 c15 -18 10 -45 -12 -59 -13 -8 -22 -6 -37 8 -25 23
-26 30 -5 50 19 20 38 20 54 1z m154 -351 c9 -8 16 -19 16 -24 0 -13 -30 -40
-44 -40 -17 0 -36 21 -36 40 0 19 19 40 36 40 7 0 20 -7 28 -16z"/>
<path d="M4338 1673 c-21 -26 -28 -28 -87 -25 l-64 4 -123 -123 -124 -124 0
-320 0 -320 105 -120 c100 -115 127 -165 90 -165 -13 0 -15 -28 -15 -190 l0
-190 45 0 45 0 0 184 c0 113 -4 187 -10 191 -5 3 -10 19 -10 36 0 23 -23 55
-105 149 l-105 119 0 303 0 303 47 48 46 49 96 -96 96 -96 105 0 106 0 59 -60
59 -60 119 0 c115 0 120 -1 139 -25 15 -19 29 -25 57 -25 48 0 75 28 75 77 0
72 -92 101 -136 43 l-22 -30 -106 0 -106 0 -49 50 -49 50 104 105 105 105 157
0 c95 0 158 -4 158 -10 0 -20 45 -50 75 -50 64 0 100 85 55 130 -29 29 -85 27
-114 -5 -23 -25 -26 -25 -182 -25 l-159 0 -115 -115 -115 -115 -100 0 -100 0
-91 91 -91 91 52 49 c50 47 54 49 108 49 32 0 57 -4 57 -8 0 -22 43 -52 75
-52 46 0 75 29 75 75 0 73 -84 103 -132 48z m92 -33 c15 -28 -22 -65 -50 -50
-22 12 -26 40 -8 58 18 18 46 14 58 -8z m715 -105 c0 -27 -3 -30 -30 -30 -21
0 -31 5 -33 18 -6 33 6 49 35 45 24 -3 28 -8 28 -33z m-202 -327 c8 -12 7 -21
-2 -32 -19 -23 -58 -20 -66 4 -14 43 44 67 68 28z"/>
</g>
</svg>
