<?xml version="1.0" standalone="no"?>
<!DOCTYPE svg PUBLIC "-//W3C//DTD SVG 20010904//EN"
 "http://www.w3.org/TR/2001/REC-SVG-20010904/DTD/svg10.dtd">
<svg version="1.0" xmlns="http://www.w3.org/2000/svg"
 width="587.000000pt" height="696.000000pt" viewBox="0 0 587.000000 696.000000"
 preserveAspectRatio="xMidYMid meet" style="transform: rotate(180deg)">

<g transform="translate(0.000000,696.000000) scale(0.100000,-0.100000)"
fill="#31d4ed" stroke="none">
<path d="M2602 6860 c-31 -29 -30 -82 3 -108 l25 -20 0 -519 0 -518 -165 -165
-165 -165 0 -535 0 -535 275 -275 275 -275 0 -122 c0 -68 -2 -123 -4 -123 -2
0 -18 13 -35 29 -31 29 -31 30 -31 131 l0 101 -49 50 -48 49 -154 0 -154 0
-103 -103 -102 -102 0 -50 0 -50 114 -114 c78 -78 112 -119 109 -131 -9 -36
48 -65 75 -38 32 32 1 85 -42 74 -20 -5 -40 11 -135 105 -110 109 -111 111
-111 157 0 45 2 48 101 144 l100 98 147 0 148 0 47 -48 47 -48 0 -87 c0 -48
-3 -87 -6 -87 -3 0 -22 18 -43 40 -35 37 -41 40 -92 40 -52 0 -57 -2 -104 -50
-37 -38 -56 -50 -76 -48 -32 2 -59 -17 -59 -42 0 -25 25 -42 57 -38 24 3 28 8
31 37 3 25 16 47 52 83 44 44 52 48 97 48 48 0 50 -1 136 -88 l87 -87 0 -288
c0 -158 -2 -287 -4 -287 -2 0 -40 36 -85 80 l-81 80 0 198 c0 186 1 198 20
210 22 14 27 51 8 70 -36 36 -93 -11 -69 -57 7 -11 16 -21 21 -21 6 0 10 -79
10 -203 l0 -202 90 -90 90 -90 0 -1357 0 -1358 25 0 25 0 0 1604 0 1605 190
189 190 188 0 259 0 259 -100 98 -100 99 0 193 0 193 500 499 500 499 0 255
c0 244 1 256 20 268 24 14 26 54 5 72 -20 17 -62 5 -70 -20 -7 -21 10 -60 25
-60 6 0 10 -97 10 -253 l0 -252 -500 -500 -500 -500 0 -200 0 -200 100 -100
100 -100 0 -137 c0 -76 -2 -138 -4 -138 -3 0 -113 108 -245 241 l-241 240 0
143 0 143 150 150 150 150 0 101 0 101 202 200 c167 165 207 199 225 195 31
-8 59 36 43 66 -9 16 -19 20 -43 18 -29 -3 -32 -7 -35 -39 -3 -31 -26 -58
-202 -234 l-200 -200 0 -100 0 -100 -150 -150 -150 -150 0 -150 0 -150 250
-250 250 -250 0 -100 0 -100 -177 -177 c-98 -98 -181 -178 -185 -178 -5 0 -8
82 -8 182 l0 183 -276 276 -275 275 115 115 116 114 0 252 0 251 200 200 200
200 0 249 0 249 126 127 c103 105 129 126 147 121 16 -3 29 2 42 15 15 18 16
25 7 47 -10 21 -18 25 -45 22 -29 -3 -32 -6 -35 -39 -3 -30 -20 -52 -127 -159
l-125 -125 0 -250 0 -250 -200 -200 -200 -200 0 -250 0 -250 -103 -103 c-56
-56 -106 -102 -110 -102 -4 0 -7 224 -7 498 l0 497 165 165 165 165 0 528 c0
516 0 529 20 545 11 10 23 31 26 49 13 65 -74 109 -124 63z m83 0 c3 -5 -1
-10 -9 -10 -9 0 -16 5 -16 10 0 6 4 10 9 10 6 0 13 -4 16 -10z m-23 -51 c-3
-28 1 -37 18 -45 l20 -9 -21 -13 c-19 -12 -21 -12 -16 2 4 10 1 13 -8 10 -23
-9 -41 40 -26 72 16 36 36 25 33 -17z m-12 -151 c-7 -19 -9 -15 -9 22 0 37 2
41 9 23 6 -14 6 -32 0 -45z m1426 -263 c3 -17 -21 -21 -31 -5 -4 6 -4 18 -1
27 5 12 9 14 18 5 7 -7 13 -19 14 -27z m-1736 -1490 c0 -18 -4 -23 -15 -19
-16 6 -20 26 -8 37 13 14 23 6 23 -18z m0 -79 c0 -8 -4 -18 -10 -21 -5 -3 -10
-17 -10 -30 0 -13 5 -27 10 -30 6 -3 10 -17 10 -30 0 -18 -4 -23 -15 -19 -11
5 -15 22 -15 68 0 35 3 66 7 69 11 12 23 8 23 -7z m535 -1186 c-3 -5 -3 -16 2
-22 4 -7 9 -44 10 -83 3 -62 2 -68 -10 -50 -18 25 -23 165 -7 165 6 0 8 -4 5
-10z m-408 -355 c-4 -8 -16 -15 -28 -15 l-22 0 23 20 c25 22 36 20 27 -5z
m423 -3015 c0 -19 -2 -20 -15 -6 -8 8 -15 24 -15 36 0 19 2 20 15 6 8 -8 15
-24 15 -36z m-11 -54 c9 -10 8 -15 -4 -20 -10 -4 -15 1 -15 14 0 24 4 25 19 6z"/>
<path d="M3438 6725 c-9 -19 -8 -29 6 -49 14 -22 16 -63 16 -318 l0 -294 -150
-149 -150 -150 0 -150 0 -150 -149 -149 c-83 -83 -158 -151 -167 -152 -29 -4
-47 -30 -40 -57 12 -50 86 -40 86 11 0 22 30 57 150 177 l150 150 0 150 0 150
98 98 97 97 150 0 150 0 95 95 c84 85 98 95 122 89 21 -4 33 1 53 20 29 29 32
52 9 84 -10 15 -25 22 -48 22 -40 0 -66 -26 -66 -66 0 -23 -18 -47 -91 -121
l-92 -93 -125 0 -126 0 37 38 37 38 0 306 c0 259 2 307 15 318 18 15 20 51 3
68 -21 21 -57 14 -70 -13z m465 -495 c-12 -5 -26 -17 -32 -27 -8 -14 -10 -15
-11 -2 0 21 20 39 45 38 19 0 19 -1 -2 -9z m41 -25 c13 -34 -24 -66 -50 -44
-15 12 -19 41 -7 52 12 13 51 7 57 -8z m-451 -252 c-7 -2 -21 -2 -30 0 -10 3
-4 5 12 5 17 0 24 -2 18 -5z m60 0 c-7 -2 -21 -2 -30 0 -10 3 -4 5 12 5 17 0
24 -2 18 -5z m-238 -72 c-3 -6 -11 -11 -17 -11 -6 0 -6 6 2 15 14 17 26 13 15
-4z m-138 -213 c-2 -13 -4 -5 -4 17 -1 22 1 32 4 23 2 -10 2 -28 0 -40z m0
-125 c-3 -10 -5 -2 -5 17 0 19 2 27 5 18 2 -10 2 -26 0 -35z m0 -55 c-3 -8 -6
-5 -6 6 -1 11 2 17 5 13 3 -3 4 -12 1 -19z"/>
<path d="M2199 6709 c-17 -33 3 -69 38 -69 20 0 43 -14 76 -45 l47 -46 0 -126
0 -127 -35 34 c-19 19 -35 43 -35 55 0 27 -18 45 -45 45 -43 0 -59 -44 -29
-75 9 -9 23 -14 30 -11 9 3 54 -35 114 -97 l100 -102 0 -140 0 -140 -101 -102
c-56 -56 -104 -102 -108 -101 -38 4 -59 -23 -46 -62 4 -14 15 -20 34 -20 32 0
51 16 51 45 0 13 38 58 100 120 l100 100 0 160 0 161 -50 49 -50 49 0 152 0
151 -55 52 c-30 29 -55 60 -55 70 0 42 -61 57 -81 20z m151 -114 c7 -8 8 -15
2 -15 -5 0 -15 7 -22 15 -7 8 -8 15 -2 15 5 0 15 -7 22 -15z m27 -82 c-3 -10
-5 -4 -5 12 0 17 2 24 5 18 2 -7 2 -21 0 -30z m-102 -104 c13 -21 -4 -56 -26
-55 -26 1 -45 27 -36 50 7 18 52 22 62 5z m40 -80 c11 -17 -1 -21 -15 -4 -8 9
-8 15 -2 15 6 0 14 -5 17 -11z"/>
<path d="M2223 6388 c-3 -37 37 -31 43 7 1 10 -5 14 -20 13 -13 -1 -23 -9 -23
-20z"/>
<path d="M2977 6423 c-4 -3 -7 -20 -7 -37 0 -26 -16 -48 -100 -131 l-100 -100
0 -300 0 -300 -150 -150 -150 -150 0 -110 c0 -99 -2 -111 -20 -123 -27 -17
-25 -48 4 -67 19 -13 29 -14 45 -5 28 14 28 65 1 80 -18 10 -20 21 -20 114 l0
104 150 149 150 148 0 301 0 300 101 102 c82 84 104 101 122 96 16 -3 29 2 42
15 26 30 7 71 -33 71 -16 0 -32 -3 -35 -7z"/>
<path d="M1495 6316 c-13 -19 -14 -28 -4 -50 12 -26 24 -31 68 -27 19 2 55
-28 168 -141 l143 -143 0 -150 0 -151 -50 -49 -50 -49 0 -501 0 -500 -138
-138 c-75 -75 -141 -137 -145 -137 -4 0 -7 105 -7 234 l0 233 75 74 75 74 0
235 0 236 -85 82 -85 83 0 114 c0 72 4 115 10 115 19 0 33 46 21 69 -13 23
-50 28 -69 9 -19 -19 -14 -56 8 -70 18 -12 20 -24 20 -128 l0 -115 85 -85 85
-85 0 -225 0 -226 -63 -62 c-34 -34 -66 -62 -70 -62 -4 0 -7 42 -7 94 l0 93
-49 46 c-38 35 -48 51 -44 69 6 31 -17 50 -54 46 -23 -2 -29 -8 -31 -35 -3
-35 23 -58 53 -47 11 5 32 -8 66 -42 l49 -48 0 -451 0 -450 150 -150 150 -150
0 -187 c0 -104 -2 -188 -4 -188 -2 0 -135 131 -295 290 l-291 291 0 251 0 252
-245 242 c-219 216 -245 245 -240 267 4 14 2 35 -5 46 -15 28 -75 29 -90 2
-24 -45 1 -85 51 -83 32 1 52 -16 277 -241 l242 -242 0 -250 0 -250 402 -402
403 -403 250 0 250 0 148 -148 147 -147 0 -338 c0 -185 -2 -337 -4 -337 -2 0
-23 18 -45 39 l-41 39 0 99 c0 87 2 100 20 111 22 14 27 51 8 70 -36 36 -93
-11 -69 -57 7 -11 16 -21 21 -21 6 0 10 -43 10 -103 l0 -103 50 -49 50 -49 3
-1001 c2 -932 2 -908 5 354 l2 1355 -150 148 -151 148 -98 0 -99 0 -151 151
-151 151 0 92 0 92 100 101 100 101 0 404 c0 392 1 404 20 416 24 14 26 54 5
72 -20 17 -62 5 -70 -20 -7 -21 10 -60 25 -60 6 0 10 -151 10 -402 l0 -403
-87 -87 c-48 -49 -91 -88 -95 -88 -5 0 -8 65 -8 144 l0 144 -45 40 c-38 34
-45 44 -40 65 10 39 -10 67 -48 67 -40 0 -57 -15 -57 -51 0 -34 22 -52 63 -51
25 1 42 -8 75 -41 l42 -41 0 -250 0 -251 147 -147 148 -148 -142 0 -142 0
-100 101 -101 101 0 201 0 201 -150 146 -150 146 0 97 0 98 150 146 150 147 0
502 0 501 202 201 c166 166 205 201 223 196 23 -6 55 17 55 40 0 27 -26 48
-55 44 -26 -3 -30 -8 -33 -38 -3 -30 -23 -55 -140 -172 -75 -76 -140 -138
-144 -138 -5 0 -8 63 -8 140 l0 140 -145 146 c-126 127 -145 150 -145 178 0
39 -15 56 -52 56 -18 0 -33 -8 -43 -24z m73 2 c34 -34 -6 -90 -48 -68 -20 10
-28 58 -13 73 11 11 48 8 61 -5z m-888 -1303 c16 -19 10 -45 -15 -61 -39 -26
-86 31 -53 64 16 16 53 15 68 -3z m1514 -342 c-26 -19 -29 -8 -8 24 16 25 19
26 22 9 2 -11 -4 -25 -14 -33z m-314 -563 c15 -28 -4 -60 -34 -60 -32 0 -50
24 -42 55 5 20 13 25 36 25 19 0 33 -7 40 -20z"/>
<path d="M938 5725 c-9 -19 -8 -29 6 -49 13 -21 16 -55 16 -203 l0 -178 -85
85 c-52 52 -85 93 -85 105 0 27 -18 45 -46 45 -53 0 -57 -73 -5 -87 18 -5 86
-64 175 -151 l146 -142 0 -153 0 -153 104 -103 c73 -71 106 -111 108 -129 2
-22 9 -28 35 -30 24 -2 34 2 43 18 15 28 -12 73 -40 68 -13 -2 -51 29 -120 97
l-100 100 0 150 0 151 -50 49 -50 49 0 197 c0 163 3 199 15 209 18 15 20 51 3
68 -21 21 -57 14 -70 -13z m102 -520 c20 -24 6 -28 -15 -5 -10 11 -13 20 -8
20 6 0 16 -7 23 -15z m37 -87 c-3 -7 -5 -2 -5 12 0 14 2 19 5 13 2 -7 2 -19 0
-25z"/>
<path d="M4582 5718 c-7 -7 -12 -24 -12 -38 0 -19 -35 -60 -150 -175 l-150
-150 0 -50 0 -50 100 -100 100 -100 0 -50 c0 -47 -3 -54 -48 -98 l-48 -47 -99
0 -100 0 -153 -153 -152 -152 0 -153 c0 -97 -4 -152 -10 -152 -19 0 -33 -46
-21 -69 13 -23 50 -28 69 -9 19 19 14 56 -8 70 -19 12 -20 24 -20 163 l0 150
150 147 150 148 101 0 101 0 49 49 c47 47 49 52 49 104 l0 55 -100 101 c-97
98 -100 103 -100 146 0 45 1 46 150 195 129 130 153 150 173 145 42 -11 75 43
45 73 -7 7 -21 12 -33 12 -12 0 -26 -5 -33 -12z"/>
<path d="M4290 5580 c-10 -19 -21 -20 -213 -20 l-202 0 -103 -103 -102 -102 0
-150 0 -150 -150 -150 -150 -150 0 -102 c0 -64 -4 -103 -10 -103 -19 0 -33
-46 -21 -69 13 -23 50 -28 69 -9 19 19 14 56 -8 70 -18 11 -20 24 -20 109 l0
96 150 149 150 149 0 151 0 151 100 101 101 102 199 0 c189 0 200 -1 210 -20
20 -38 80 -19 80 25 0 44 -60 63 -80 25z"/>
<path d="M2077 5523 c-4 -3 -7 -20 -7 -37 0 -26 -16 -48 -100 -131 l-100 -100
0 -100 0 -101 50 -49 50 -49 0 -251 0 -250 -148 -148 c-114 -114 -153 -147
-173 -147 -34 0 -53 -23 -45 -54 7 -30 37 -41 67 -26 17 10 20 18 16 44 -5 31
2 40 144 179 l149 147 0 256 0 256 -50 49 -50 49 0 96 0 96 102 99 c77 74 107
98 121 93 38 -12 73 46 45 74 -13 13 -60 16 -71 5z m-424 -1383 c-26 -11 -30
-25 -8 -34 21 -8 19 -28 -2 -24 -13 2 -18 13 -19 36 -1 28 2 32 25 31 26 0 26
0 4 -9z"/>
<path d="M5377 5423 c-4 -3 -7 -20 -7 -37 0 -27 -41 -72 -350 -381 l-350 -350
0 -100 0 -100 -148 -148 -147 -147 -148 0 -147 0 0 144 0 144 252 251 c209
209 255 250 273 245 13 -3 29 1 39 11 30 31 14 75 -29 75 -28 0 -45 -19 -45
-50 0 -20 -54 -79 -250 -275 l-250 -250 0 -150 0 -150 -198 -198 -197 -197
-50 0 -50 0 -153 -153 -152 -152 0 -53 c0 -29 -5 -52 -10 -52 -19 0 -33 -46
-21 -69 13 -23 50 -28 69 -9 19 19 14 56 -8 70 -15 10 -20 24 -20 58 0 46 1
46 152 198 l152 152 50 0 51 0 197 200 198 200 150 0 151 0 50 50 50 50 202 0
202 0 133 134 c101 100 139 132 153 129 39 -11 66 46 37 75 -31 31 -89 -5 -73
-46 4 -11 -32 -54 -127 -149 l-133 -133 -187 0 c-104 0 -188 2 -188 4 0 3 41
44 90 92 l90 88 0 101 0 102 352 352 c230 229 357 350 367 346 19 -8 61 22 61
43 0 10 -5 23 -12 30 -13 13 -60 16 -71 5z"/>
<path d="M4525 5310 c-35 -36 -57 -50 -77 -50 -17 0 -31 -7 -38 -19 -12 -24
-13 -34 -1 -27 4 3 16 -3 26 -14 20 -22 8 -28 -15 -7 -12 10 -12 9 -1 -5 27
-35 72 -15 70 32 -1 23 -2 23 -8 -5 l-7 -30 -5 33 c-3 17 -2 32 3 32 4 0 30
23 58 50 l50 50 98 0 98 0 47 -48 47 -48 0 -149 0 -150 -245 -245 c-209 -209
-249 -245 -276 -246 -51 -3 -67 -50 -27 -78 30 -21 63 0 63 40 0 24 41 69 248
276 l247 246 0 156 0 156 -47 50 -47 50 -106 0 -106 0 -49 -50z"/>
<path d="M3939 5329 c-12 -23 2 -69 21 -69 6 0 10 -39 10 -103 l0 -102 -98
-98 c-97 -97 -97 -97 -148 -97 -47 0 -53 -3 -102 -53 l-52 -53 0 -200 0 -200
-48 -47 c-52 -52 -89 -61 -110 -27 -30 49 -100 2 -73 -49 15 -27 57 -28 73 -1
8 12 24 20 40 20 18 0 42 15 77 49 l51 50 0 200 0 201 51 50 c47 46 54 50 100
50 49 0 50 0 149 99 l100 99 0 103 c0 93 2 105 20 117 22 14 27 51 8 70 -19
19 -56 14 -69 -9z"/>
<path d="M4185 5100 c-11 -13 -15 -27 -11 -44 5 -21 -23 -52 -229 -257 l-235
-234 0 -225 0 -225 -375 -375 -375 -375 0 -111 0 -110 100 -99 100 -98 0 -192
0 -192 -100 -98 -100 -99 0 -1103 c0 -974 2 -1103 15 -1103 13 0 15 128 15
1093 l0 1092 100 100 100 100 0 106 0 105 245 245 245 244 0 153 0 153 201
199 201 200 397 0 398 0 149 150 149 149 252 1 c242 0 253 -1 263 -20 20 -38
80 -19 80 25 0 44 -60 63 -80 25 -10 -19 -21 -20 -263 -20 l-252 0 -150 -150
-150 -150 -400 0 -400 0 -203 -203 -202 -202 0 -150 0 -150 -233 -233 c-127
-127 -235 -232 -240 -232 -4 0 -7 39 -7 88 l0 87 -100 100 -100 100 0 90 0 90
375 375 375 375 0 225 0 225 233 233 c127 127 238 232 245 232 8 0 21 8 30 18
10 10 13 11 7 2 -9 -13 -8 -13 8 -1 23 18 22 67 -2 81 -30 15 -56 12 -76 -10z
m-50 -149 c-3 -6 -11 -11 -16 -11 -5 0 -4 6 3 14 14 16 24 13 13 -3z m-80 -81
c-21 -22 -41 -38 -43 -35 -3 3 12 23 34 44 21 22 40 38 43 35 3 -2 -13 -22
-34 -44z m-290 -289 c-3 -6 -11 -11 -17 -11 -6 0 -6 6 2 15 14 17 26 13 15 -4z
m-38 -113 c-3 -7 -5 -2 -5 12 0 14 2 19 5 13 2 -7 2 -19 0 -25z m0 -95 c-3
-10 -5 -4 -5 12 0 17 2 24 5 18 2 -7 2 -21 0 -30z m-750 -4166 c-2 -23 -3 -2
-3 48 0 50 1 68 3 42 2 -26 2 -67 0 -90z"/>
<path d="M5484 4785 l-16 -25 -197 0 -196 0 -83 -83 c-73 -73 -87 -83 -112
-79 -24 3 -32 -1 -41 -21 -15 -32 3 -67 34 -67 30 0 47 18 47 50 0 18 22 48
81 108 l80 82 193 0 194 0 16 -25 c29 -45 96 -24 96 30 0 54 -67 75 -96 30z
m74 3 c27 -27 7 -78 -29 -78 -21 0 -49 26 -49 45 0 35 53 58 78 33z"/>
<path d="M789 4579 c-27 -51 43 -98 73 -49 10 16 24 20 63 20 47 0 54 -3 98
-48 l47 -48 0 -249 0 -250 200 -200 200 -200 0 -102 c0 -60 4 -104 10 -108 6
-4 8 -15 5 -25 -9 -28 12 -60 38 -60 29 0 47 18 47 45 0 30 -19 45 -57 45
l-33 0 0 105 0 106 -200 199 -200 199 0 253 0 254 -48 47 c-45 44 -51 47 -102
47 -44 0 -58 4 -68 20 -16 27 -58 26 -73 -1z"/>
<path d="M1339 4529 c-12 -23 2 -69 21 -69 6 0 10 -71 10 -203 l0 -203 50 -49
c48 -47 50 -52 50 -102 0 -39 -4 -55 -15 -59 -13 -5 -13 -9 -3 -21 7 -8 13
-24 15 -35 3 -18 1 -19 -12 -8 -9 7 -14 19 -11 27 3 7 1 13 -4 13 -15 0 -12
-27 6 -44 31 -31 74 -13 74 31 0 13 -9 28 -20 35 -16 10 -20 24 -20 65 0 50
-3 55 -50 102 l-50 50 0 198 c0 187 1 199 20 211 22 14 27 51 8 70 -19 19 -56
14 -69 -9z"/>
<path d="M2539 4429 c-12 -23 2 -69 21 -69 5 0 10 -23 10 -53 l0 -52 203 -203
202 -202 52 0 c42 0 54 -4 63 -20 20 -38 80 -19 80 25 0 44 -60 63 -80 25 -8
-16 -21 -20 -59 -20 l-48 0 -202 200 -201 201 0 47 c0 36 5 50 20 60 22 14 27
51 8 70 -19 19 -56 14 -69 -9z"/>
<path d="M839 4329 c-11 -22 1 -69 18 -69 5 0 7 -71 5 -157 l-3 -158 205 -204
c147 -146 206 -211 208 -230 2 -21 9 -27 35 -29 27 -3 35 1 45 23 10 21 9 29
-5 42 -9 9 -25 17 -37 18 -13 1 -99 79 -221 201 l-199 199 0 146 c0 118 3 149
15 159 18 15 20 51 3 68 -19 19 -56 14 -69 -9z"/>
<path d="M528 4132 c-21 -4 -32 -34 -23 -62 6 -19 22 -25 54 -20 8 1 81 -65
163 -147 l148 -148 0 -137 c0 -76 -2 -138 -5 -138 -3 0 -45 41 -93 90 l-88 90
-254 0 c-244 0 -256 1 -268 20 -30 49 -100 2 -73 -49 15 -27 57 -28 73 -1 12
19 24 20 263 20 l250 0 98 -98 c97 -97 97 -97 97 -147 0 -50 1 -51 85 -135 47
-47 85 -88 85 -92 0 -5 -125 -8 -278 -8 -265 0 -278 1 -295 20 -32 38 -97 14
-97 -37 0 -47 66 -70 97 -33 17 19 30 20 458 20 l440 0 150 -150 150 -150 252
0 253 0 145 -147 144 -148 1 -251 0 -250 100 -99 100 -98 0 -843 c0 -744 2
-844 15 -844 13 0 15 101 15 853 l0 852 -100 100 -100 100 0 250 0 250 -153
153 -152 152 -250 0 -250 0 -150 150 -150 150 -157 0 -156 0 -96 96 -96 96 0
200 0 201 -151 148 c-82 82 -147 154 -144 159 4 6 4 22 1 34 -6 24 -28 35 -58
28z m175 -979 c-7 -2 -21 -2 -30 0 -10 3 -4 5 12 5 17 0 24 -2 18 -5z m144 1
c-3 -3 -12 -4 -19 -1 -8 3 -5 6 6 6 11 1 17 -2 13 -5z m1351 -306 c7 -7 12
-17 12 -23 0 -5 -6 -2 -14 7 -9 12 -31 18 -77 21 l-64 3 66 2 c40 1 70 -3 77
-10z"/>
<path d="M5294 3985 c-5 -12 -27 -15 -114 -15 l-108 0 -100 -100 -99 -100
-305 0 -305 0 -52 -55 c-29 -30 -55 -54 -59 -51 -4 2 -17 0 -30 -5 -19 -7 -23
-15 -20 -41 2 -28 8 -34 31 -36 34 -4 57 13 57 42 0 13 20 41 48 69 l48 47
172 0 c95 0 172 -2 172 -5 0 -3 -16 -19 -35 -36 l-35 -31 0 -102 0 -101 -50
-52 c-36 -37 -55 -50 -69 -46 -28 7 -56 -38 -41 -66 15 -30 68 -29 79 2 5 12
7 25 5 29 -3 4 21 30 51 59 l55 52 0 101 0 102 48 47 48 47 100 0 99 0 100
100 100 100 101 0 c81 0 103 -3 108 -15 7 -18 47 -20 64 -3 7 7 12 21 12 33 0
12 -5 26 -12 33 -17 17 -57 15 -64 -3z m-501 -232 c-13 -2 -35 -2 -50 0 -16 2
-5 4 22 4 28 0 40 -2 28 -4z"/>
<path d="M3940 3640 c-26 -26 -25 -46 5 -76 23 -23 25 -32 25 -117 l0 -92
-250 -250 -250 -250 0 -52 c0 -30 -5 -53 -10 -53 -19 0 -33 -46 -21 -69 13
-23 50 -28 69 -9 19 19 14 56 -8 70 -15 10 -20 24 -20 60 l0 47 246 243 c135
134 247 245 250 247 2 3 25 -15 49 -39 l45 -44 0 -151 0 -151 49 -49 c39 -37
51 -56 53 -84 3 -33 6 -36 35 -39 27 -3 35 1 45 22 9 22 8 29 -7 47 -13 13
-27 18 -41 15 -16 -4 -34 6 -73 46 l-51 51 0 149 0 150 -50 48 -50 48 0 96 c0
53 4 96 9 96 18 0 41 31 41 54 0 26 -29 56 -53 56 -9 0 -26 -9 -37 -20z m61 0
c21 -12 25 -50 7 -68 -39 -39 -100 17 -63 58 21 23 29 24 56 10z"/>
<path d="M4772 3457 l-202 -202 0 -151 0 -150 -45 -44 -45 -44 -46 44 c-25 25
-70 69 -100 98 l-54 53 0 193 0 194 51 51 c28 28 55 48 60 45 6 -3 21 -3 33 0
46 11 39 86 -7 86 -30 0 -47 -18 -47 -50 0 -18 -16 -41 -50 -75 l-50 -49 0
-201 0 -200 100 -100 100 -100 -147 -147 -148 -148 -237 0 c-131 0 -238 2
-238 4 0 2 40 44 90 92 l90 89 0 155 c0 144 1 156 20 168 22 14 27 51 8 70
-36 36 -93 -11 -69 -57 7 -11 16 -21 21 -21 6 0 10 -61 10 -153 l0 -152 -98
-98 -97 -97 -200 0 -200 0 -102 -102 -103 -103 2 -1100 3 -1100 2 1096 3 1096
101 102 102 101 596 0 596 0 197 -197 c172 -173 197 -202 200 -233 3 -31 6
-35 35 -38 52 -5 69 53 23 78 -10 6 -25 7 -34 4 -10 -4 -60 40 -155 136 -78
78 -141 144 -141 146 0 2 41 4 92 4 l92 0 197 199 c173 174 201 198 223 194
51 -10 79 54 35 78 -33 17 -69 -3 -69 -38 0 -23 -35 -64 -198 -226 l-197 -197
-98 0 -97 0 -47 50 -47 50 -143 0 c-79 0 -143 2 -143 4 0 2 86 88 190 192
l190 188 0 154 0 154 200 199 200 199 148 0 147 0 99 -99 c58 -58 97 -105 94
-113 -3 -7 -2 -23 3 -35 11 -30 63 -32 79 -3 18 35 -18 78 -54 64 -9 -4 -51
31 -113 95 l-99 101 -155 0 -154 0 -203 -203z"/>
<path d="M5082 3418 c-7 -7 -12 -24 -12 -38 0 -19 -25 -50 -100 -125 l-100
-100 0 -100 0 -100 -98 -98 c-69 -69 -103 -96 -114 -92 -41 16 -77 -42 -46
-73 30 -30 85 -2 75 39 -4 16 15 41 94 117 l99 97 0 102 0 103 99 99 c85 85
102 98 125 94 32 -6 56 12 56 41 0 28 -18 46 -45 46 -12 0 -26 -5 -33 -12z"/>
<path d="M984 3385 c-14 -21 -15 -31 -6 -51 7 -13 19 -27 27 -30 25 -10 63 5
70 26 6 18 15 20 103 20 l97 0 200 -200 200 -200 350 0 350 0 98 -98 c82 -82
97 -102 97 -129 0 -43 31 -61 66 -38 27 17 29 27 14 56 -7 13 -21 19 -43 19
-28 0 -45 14 -126 100 l-95 100 -252 0 -252 0 -101 101 c-99 99 -101 101 -101
147 0 36 5 50 20 60 22 14 27 51 8 70 -19 19 -56 14 -69 -9 -12 -23 2 -69 21
-69 5 0 10 -23 10 -52 l0 -53 97 -97 98 -98 -91 0 -92 0 -200 200 -199 200
-102 0 c-55 0 -101 4 -101 9 0 18 -31 41 -55 41 -15 0 -31 -10 -41 -25z m74 3
c27 -27 7 -78 -29 -78 -21 0 -49 26 -49 45 0 35 53 58 78 33z"/>
<path d="M1007 3023 c-13 -12 -7 -60 8 -73 8 -7 25 -10 38 -6 19 4 33 -5 72
-44 l49 -50 151 0 150 0 100 -100 100 -100 200 0 200 0 98 -98 97 -97 0 -138
c0 -75 -2 -137 -5 -137 -2 0 -44 41 -93 90 l-89 90 -200 0 -201 0 -100 100
-100 100 -200 0 -201 0 -146 146 c-127 128 -145 151 -145 179 0 39 -19 58 -57
53 -35 -4 -57 -42 -41 -72 16 -30 29 -37 63 -31 28 5 41 -6 175 -140 143 -144
145 -145 190 -145 l45 0 -95 -95 -95 -95 -150 0 c-139 0 -151 1 -163 20 -30
49 -100 2 -73 -49 15 -27 57 -28 73 -1 12 19 24 20 169 20 l155 0 99 100 98
100 146 0 146 0 95 -95 95 -95 -95 0 -95 0 -199 -199 c-163 -164 -204 -199
-226 -199 -38 1 -50 -9 -50 -42 0 -50 57 -63 80 -20 6 10 7 25 4 33 -3 10 64
84 197 216 l202 201 296 0 296 0 248 -248 247 -247 3 -850 2 -850 3 855 2 854
-150 148 -150 147 0 153 0 154 -100 97 -100 97 -199 0 -200 0 -99 100 -98 100
-152 0 -153 0 -49 51 c-27 28 -47 56 -44 64 10 25 -15 55 -45 55 -15 0 -31 -3
-34 -7z m-243 -99 c24 -9 21 -61 -4 -74 -22 -12 -59 2 -61 23 -5 47 22 68 65
51z"/>
<path d="M3272 2257 l-102 -102 0 -150 0 -150 100 -100 100 -100 0 -50 0 -50
-100 -100 -100 -100 2 -600 3 -600 2 596 3 597 100 98 100 99 0 205 c0 194 1
206 20 218 22 14 27 51 8 70 -36 36 -93 -11 -69 -57 7 -11 16 -21 21 -21 6 0
10 -57 10 -140 0 -77 -2 -140 -5 -140 -2 0 -45 41 -95 92 l-90 92 0 146 0 145
99 98 98 97 199 0 199 0 198 -198 197 -197 0 -97 c0 -76 -3 -97 -15 -102 -8
-3 -20 -17 -27 -30 -23 -53 46 -101 86 -60 28 28 11 94 -25 94 -5 0 -9 45 -9
101 l0 101 -199 199 -198 199 -204 0 -204 0 -103 -103z m936 -519 c27 -27 7
-78 -29 -78 -21 0 -49 26 -49 45 0 35 53 58 78 33z"/>
<path d="M2125 1855 c-32 -31 -32 -69 0 -101 23 -23 25 -32 25 -117 l0 -92
150 -150 150 -150 0 -542 0 -543 25 0 25 0 0 553 0 552 -150 150 -150 150 0
81 c0 73 2 82 25 102 33 29 34 80 2 110 -31 29 -72 28 -102 -3z m257 -482 c12
-12 22 -33 23 -47 1 -23 -3 -22 -47 22 -26 26 -48 47 -48 48 0 0 11 0 25 0 14
-1 35 -11 47 -23z"/>
<path d="M2359 1373 c11 -22 30 -38 35 -32 2 2 -8 15 -21 29 -23 23 -24 23
-14 3z"/>
<path d="M3477 1423 c-4 -3 -7 -16 -7 -28 0 -15 -35 -57 -105 -125 l-105 -104
0 -503 c0 -440 2 -503 15 -503 13 0 15 61 15 492 l0 493 101 101 c63 63 107
100 116 97 17 -7 53 25 53 47 0 9 -5 21 -12 28 -13 13 -60 16 -71 5z"/>
</g>
</svg>
